<?xml version="1.0" encoding="utf-8"?>
<!-- Generator: Adobe Illustrator 25.1.0, SVG Export Plug-In . SVG Version: 6.00 Build 0)  -->
<svg version="1.1" id="Layer_1" xmlns="http://www.w3.org/2000/svg" xmlns:xlink="http://www.w3.org/1999/xlink" x="0px" y="0px"
	 viewBox="0 0 171.3 55.1" style="enable-background:new 0 0 171.3 55.1;" xml:space="preserve">
<style type="text/css">
	.st0{enable-background:new    ;}
	.st1{fill:#41C78F;}
	.st2{fill:#091D5C;}
</style>
<g>
	<g class="st0">
		<path class="st1" d="M82.9,13.9c7.7,0,13.1,4.2,14.7,11.5h-10c-0.8-2.1-2.3-3.5-4.9-3.5c-3.4,0-5.7,2.6-5.7,7.8s2.3,7.8,5.7,7.8
			c2.6,0,4.1-1.3,4.9-3.5h10c-1.6,7.1-7,11.5-14.7,11.5c-9,0-15.4-6-15.4-15.8C67.5,20,73.9,13.9,82.9,13.9z"/>
		<path class="st1" d="M109.9,13.9c4.6,0,7.8,2.1,9.5,4.8v-4.3h9.4V45h-9.4v-4.3c-1.7,2.7-5,4.8-9.5,4.8c-7.5,0-13.5-6.2-13.5-15.8
			C96.4,19.9,102.4,13.9,109.9,13.9z M112.7,22.1c-3.5,0-6.7,2.6-6.7,7.5s3.2,7.6,6.7,7.6c3.6,0,6.7-2.7,6.7-7.6
			S116.3,22.1,112.7,22.1z"/>
		<path class="st1" d="M131.2,4.3h9.4V45h-9.4V4.3z"/>
		<path class="st1" d="M156.6,13.9c7.7,0,13.1,4.2,14.7,11.5h-10c-0.8-2.1-2.3-3.5-4.9-3.5c-3.4,0-5.7,2.6-5.7,7.8s2.3,7.8,5.7,7.8
			c2.6,0,4.1-1.3,4.9-3.5h10c-1.6,7.1-7,11.5-14.7,11.5c-9,0-15.4-6-15.4-15.8C141.2,20,147.6,13.9,156.6,13.9z"/>
	</g>
	<path id="Path_303" class="st2" d="M3.4,47.8c0.8,0,1.7-0.3,2.2-1c0.6-0.8,0.9-1.9,0.8-2.9V13.5h8.4L15,44.1
		c0.2,2.9-0.8,5.9-2.8,8.1c-1.9,2-4.6,3.1-7.4,2.9c-1.6,0-3.3-0.3-4.8-0.8l1.6-6.9C2.2,47.7,2.8,47.8,3.4,47.8z M15,0v8.2H6.4V0H15z
		"/>
	<path id="Path_305" class="st2" d="M25.9,13.5v18.1c-0.1,1.7,0.4,3.3,1.4,4.6c1.2,1.1,2.8,1.7,4.4,1.5c1.6,0.1,3.2-0.4,4.4-1.5
		c1-1.3,1.5-3,1.4-4.6v-9.4l8.4-8.4v18.5c0,4.1-1.2,7.1-3.7,9.3c-2.5,2.1-5.9,3.2-10.4,3.2c-4.4,0-7.8-1-10.2-3.1S18,36.5,18,32.4
		v-19L25.9,13.5L25.9,13.5z"/>
	<path id="Path_306" class="st2" d="M70,30.1c-0.8-1.2-2-2.2-3.3-2.8c-1.6-0.7-3.3-1.3-5-1.7c-1.4-0.3-2.8-0.8-4.1-1.5
		c-0.8-0.4-1.2-1.3-1.2-2.1s0.4-1.5,1-1.8c0.8-0.5,1.7-0.7,2.7-0.7c1.5,0,3,0.2,4.4,0.6c0.4,0.1,0.8,0.2,1.1,0.3v-1.8L60,12.8
		c-3.2-0.1-6.3,0.8-8.9,2.6c-2.3,1.7-3.5,4.4-3.4,7.2c0,4.7,2.8,7.8,8.3,9.3c1.6,0.4,3.3,1,4.8,1.6c0.9,0.3,1.5,1.2,1.5,2.1
		c0,0.8-0.5,1.5-1.2,1.9c-1.1,0.5-2.2,0.8-3.4,0.7c-1.5,0-3-0.2-4.4-0.6c-1.5-0.4-2.9-1-4.3-1.7L46.9,42c1.7,0.8,3.5,1.5,5.4,2
		c1.8,0.5,3.6,0.7,5.5,0.8c3.4,0.1,6.9-0.7,9.8-2.5C71.4,39.4,72.5,34.1,70,30.1L70,30.1z"/>
</g>
</svg>
