<?xml version="1.0" encoding="utf-8"?>
<!-- Generator: Adobe Illustrator 25.1.0, SVG Export Plug-In . SVG Version: 6.00 Build 0)  -->
<svg version="1.1" id="Layer_1" xmlns="http://www.w3.org/2000/svg" xmlns:xlink="http://www.w3.org/1999/xlink" x="0px" y="0px"
	 viewBox="0 0 278.1 55.1" style="enable-background:new 0 0 278.1 55.1;" xml:space="preserve">
<style type="text/css">
	.st0{enable-background:new    ;}
	.st1{fill:#008BF0;}
	.st2{fill:#091D5C;}
</style>
<g class="st0">
	<path class="st1" d="M81.3,14.1c4.1,0,7.8,1.9,9.6,4.8V4.2h9.6v41.5h-9.6v-4.5c-1.7,2.9-5,4.9-9.6,4.9c-7.7,0-13.8-6.3-13.8-16.1
		S73.6,14.1,81.3,14.1z M84.1,22.4c-3.5,0-6.9,2.7-6.9,7.7s3.2,7.8,6.9,7.8s6.9-2.7,6.9-7.8S87.8,22.4,84.1,22.4z"/>
	<path class="st1" d="M117,46.2c-9.2,0-15.8-6.2-15.8-16.1S107.7,14,117,14c9.2,0,15.6,6.1,15.6,15.6c0,0.9,0,1.8-0.1,2.9h-21.7
		c0.3,4.1,2.9,6,6,6c2.7,0,4.2-1.4,5-3h10.2C130.4,41.5,124.7,46.2,117,46.2z M110.8,27.1h12c0-3.4-2.7-5.4-5.8-5.4
		C113.8,21.7,111.4,23.6,110.8,27.1z"/>
	<path class="st1" d="M146.9,14.1c7.9,0,13.4,4.3,15,11.8h-10.2c-0.8-2.2-2.4-3.5-5-3.5c-3.4,0-5.7,2.7-5.7,7.9s2.4,7.9,5.7,7.9
		c2.6,0,4.1-1.3,5-3.5h10.2c-1.6,7.2-7.2,11.8-15,11.8c-9.2,0-15.7-6.2-15.7-16.1S137.8,14.1,146.9,14.1z"/>
	<path class="st1" d="M161.8,6.1c0-2.9,2.3-5.3,5.7-5.3c3.3,0,5.6,2.3,5.6,5.3c0,2.9-2.3,5.1-5.6,5.1
		C164.1,11.2,161.8,8.9,161.8,6.1z M162.6,14.5h9.6v31.2h-9.6V14.5z"/>
	<path class="st1" d="M187.6,46.2c-8.4,0-14-4.7-14.4-10.8h9.5c0.2,2.2,2.2,3.7,4.8,3.7c2.5,0,3.8-1.1,3.8-2.5
		c0-5-17.1-1.4-17.1-12.9c0-5.4,4.6-9.7,12.7-9.7c8.1,0,12.6,4.5,13.2,10.6h-8.8c-0.2-2.2-1.9-3.5-4.6-3.5c-2.3,0-3.4,0.9-3.4,2.4
		c0,5,16.9,1.5,17.1,13.2C200.2,42.1,195.4,46.2,187.6,46.2z"/>
	<path class="st1" d="M200.7,6.1c0-2.9,2.3-5.3,5.7-5.3c3.3,0,5.6,2.3,5.6,5.3c0,2.9-2.3,5.1-5.6,5.1C203,11.2,200.7,8.9,200.7,6.1z
		 M201.7,14.5h9.6v31.2h-9.6V14.5z"/>
	<path class="st1" d="M228,46.2c-9.2,0-16.1-6.2-16.1-16.1S218.9,14,228.1,14s16.3,6.2,16.3,16.1S237.2,46.2,228,46.2z M228,37.9
		c3.4,0,6.6-2.5,6.6-7.8c0-5.4-3.1-7.8-6.5-7.8c-3.4,0-6.5,2.5-6.5,7.8C221.6,35.4,224.5,37.9,228,37.9z"/>
	<path class="st1" d="M266.7,28.8c0-4.2-2.4-6.6-6-6.6c-3.5,0-6,2.4-6,6.6v16.9h-9.6V14.5h9.6v4.1c1.9-2.6,5.3-4.5,9.5-4.5
		c7.2,0,12,4.9,12,13.4v18.3h-9.5V28.8H266.7z"/>
</g>
<path id="Path_303" class="st2" d="M3.4,47.8c0.8,0,1.7-0.3,2.2-1c0.6-0.8,0.9-1.9,0.8-2.9V13.5h8.4L15,44.1
	c0.2,2.9-0.8,5.9-2.8,8.1c-1.9,2-4.6,3.1-7.4,2.9c-1.6,0-3.3-0.3-4.8-0.8l1.6-6.9C2.2,47.7,2.8,47.8,3.4,47.8z M15,0v8.2H6.4V0H15z"
	/>
<path id="Path_305" class="st2" d="M25.9,13.5v18.1c-0.1,1.7,0.4,3.3,1.4,4.6c1.2,1.1,2.8,1.7,4.4,1.5c1.6,0.1,3.2-0.4,4.4-1.5
	c1-1.3,1.5-3,1.4-4.6v-9.4l8.4-8.4v18.5c0,4.1-1.2,7.1-3.7,9.3c-2.5,2.1-5.9,3.2-10.4,3.2c-4.4,0-7.8-1-10.2-3.1S18,36.5,18,32.4
	v-19L25.9,13.5L25.9,13.5z"/>
<path id="Path_306" class="st2" d="M70,30.1c-0.8-1.2-2-2.2-3.3-2.8c-1.6-0.7-3.3-1.3-5-1.7c-1.4-0.3-2.8-0.8-4.1-1.5
	c-0.8-0.4-1.2-1.3-1.2-2.1s0.4-1.5,1-1.8c0.8-0.5,1.7-0.7,2.7-0.7c1.5,0,3,0.2,4.4,0.6c0.4,0.1,0.8,0.2,1.1,0.3v-1.8L60,12.8
	c-3.2-0.1-6.3,0.8-8.9,2.6c-2.3,1.7-3.5,4.4-3.4,7.2c0,4.7,2.8,7.8,8.3,9.3c1.6,0.4,3.3,1,4.8,1.6c0.9,0.3,1.5,1.2,1.5,2.1
	c0,0.8-0.5,1.5-1.2,1.9c-1.1,0.5-2.2,0.8-3.4,0.7c-1.5,0-3-0.2-4.4-0.6c-1.5-0.4-2.9-1-4.3-1.7L46.9,42c1.7,0.8,3.5,1.5,5.4,2
	c1.8,0.5,3.6,0.7,5.5,0.8c3.4,0.1,6.9-0.7,9.8-2.5C71.4,39.4,72.5,34.1,70,30.1L70,30.1z"/>
</svg>
