<?xml version="1.0" encoding="utf-8"?>
<!-- Generator: Adobe Illustrator 25.1.0, SVG Export Plug-In . SVG Version: 6.00 Build 0)  -->
<svg version="1.1" id="Layer_1" xmlns="http://www.w3.org/2000/svg" xmlns:xlink="http://www.w3.org/1999/xlink" x="0px" y="0px"
	 viewBox="0 0 221.4 55.1" style="enable-background:new 0 0 221.4 55.1;" xml:space="preserve">
<style type="text/css">
	.st0{enable-background:new    ;}
	.st1{fill:#F47161;}
	.st2{fill:#091D5C;}
</style>
<g>
	<g class="st0">
		<path class="st1" d="M75,22.8h-3.4v-7.9H75V14c0-8.1,5-12.1,14.3-11.5v8c-3.6-0.2-5,0.9-5,4.2v0.2h5.1v7.9h-5.1v23h-9.4L75,22.8
			L75,22.8z"/>
		<path class="st1" d="M88.7,6.7c0-2.8,2.3-5.2,5.6-5.2c3.3,0,5.5,2.3,5.5,5.2c0,2.8-2.3,5.1-5.5,5.1C91,11.7,88.7,9.5,88.7,6.7z
			 M89.6,15h9.5v30.8h-9.5V15z"/>
		<path class="st1" d="M122.9,29.1c0-4.2-2.4-6.6-5.9-6.6s-5.9,2.4-5.9,6.6v16.7h-9.5V15h9.5v4.1c1.9-2.6,5.2-4.4,9.4-4.4
			c7.1,0,11.9,4.9,11.9,13.2V46H123L122.9,29.1L122.9,29.1z"/>
		<path class="st1" d="M146.2,14.6c4.1,0,7.7,1.9,9.5,4.7V4.8h9.5v41h-9.5v-4.4c-1.7,2.8-5,4.9-9.5,4.9c-7.6,0-13.7-6.2-13.7-15.9
			S138.7,14.6,146.2,14.6z M149,22.8c-3.5,0-6.8,2.7-6.8,7.6s3.2,7.7,6.8,7.7s6.8-2.7,6.8-7.7S152.6,22.8,149,22.8z"/>
		<path class="st1" d="M181.4,46.3c-9,0-15.6-6.1-15.6-15.9s6.4-15.9,15.6-15.9c9,0,15.4,6,15.4,15.4c0,0.9,0,1.8-0.1,2.8h-21.5
			c0.3,4.1,2.8,5.9,5.9,5.9c2.7,0,4.2-1.4,5-2.9h10.1C194.6,41.7,189.2,46.3,181.4,46.3z M175.2,27.4h11.9c0-3.4-2.7-5.3-5.8-5.3
			C178.2,22.1,175.8,23.9,175.2,27.4z"/>
		<path class="st1" d="M206.9,45.9h-9.5V15h9.5v5.2c2.1-3.3,5.5-5.5,9.7-5.5v10.1h-2.6c-4.5,0-7.1,1.6-7.1,6.9L206.9,45.9
			L206.9,45.9z"/>
	</g>
	<path id="Path_303" class="st2" d="M8.3,47.8c0.8,0,1.7-0.3,2.2-1c0.6-0.8,0.9-1.9,0.8-2.9V13.5h8.4l0.2,30.6
		c0.2,2.9-0.8,5.9-2.8,8.1c-1.9,2-4.6,3.1-7.4,2.9c-1.6,0-3.3-0.3-4.8-0.8l1.6-6.9C7.1,47.7,7.7,47.8,8.3,47.8z M19.9,0v8.2h-8.6V0
		H19.9z"/>
	<path id="Path_305" class="st2" d="M30.8,13.5v18.1c-0.1,1.7,0.4,3.3,1.4,4.6c1.2,1.1,2.8,1.7,4.4,1.5c1.6,0.1,3.2-0.4,4.4-1.5
		c1-1.3,1.5-3,1.4-4.6v-9.4l8.4-8.4v18.5c0,4.1-1.2,7.1-3.7,9.3c-2.5,2.1-5.9,3.2-10.4,3.2c-4.4,0-7.8-1-10.2-3.1s-3.6-5.2-3.6-9.3
		v-19L30.8,13.5L30.8,13.5z"/>
	<path id="Path_306" class="st2" d="M74.9,30.1c-0.8-1.2-2-2.2-3.3-2.8c-1.6-0.7-3.3-1.3-5-1.7c-1.4-0.3-2.8-0.8-4.1-1.5
		c-0.8-0.4-1.2-1.3-1.2-2.1s0.4-1.5,1-1.8c0.8-0.5,1.7-0.7,2.7-0.7c1.5,0,3,0.2,4.4,0.6c0.4,0.1,0.8,0.2,1.1,0.3v-1.8l-5.6-5.8
		c-3.2-0.1-6.3,0.8-8.9,2.6c-2.3,1.7-3.5,4.4-3.4,7.2c0,4.7,2.8,7.8,8.3,9.3c1.6,0.4,3.3,1,4.8,1.6c0.9,0.3,1.5,1.2,1.5,2.1
		c0,0.8-0.5,1.5-1.2,1.9c-1.1,0.5-2.2,0.8-3.4,0.7c-1.5,0-3-0.2-4.4-0.6c-1.5-0.4-2.9-1-4.3-1.7L51.8,42c1.7,0.8,3.5,1.5,5.4,2
		c1.8,0.5,3.6,0.7,5.5,0.8c3.4,0.1,6.9-0.7,9.8-2.5C76.3,39.4,77.4,34.1,74.9,30.1L74.9,30.1z"/>
</g>
</svg>
