<svg xmlns="http://www.w3.org/2000/svg" width="77.404" height="36.656" viewBox="0 0 77.404 36.656">
  <g id="logo" transform="translate(0.02 -7.14)">
    <path id="Caminho_303" data-name="Caminho 303" d="M2.269,38.913a1.863,1.863,0,0,0,1.479-.639,2.917,2.917,0,0,0,.56-1.96V16.066H9.869l.079,20.406a7.316,7.316,0,0,1-1.842,5.364A6.508,6.508,0,0,1,3.183,43.8a10.258,10.258,0,0,1-3.2-.521l1.081-4.6A3.249,3.249,0,0,0,2.269,38.913ZM9.991,7.14v5.482H4.229V7.14Z" fill="#091d5c"/>
    <path id="Caminho_304" data-name="Caminho 304" d="M134.995,27.73,130.971,39.8l-4.023-12.07h-3.286v5.644l4.873,12c-.54,1.621-1.508,2.437-2.893,2.437a5.088,5.088,0,0,1-1.233-.142l-.919,4.2a13.511,13.511,0,0,0,2.928.422,5.569,5.569,0,0,0,3.866-1.449,12.609,12.609,0,0,0,2.913-4.834l7.025-18.279h-5.227Z" transform="translate(-62.838 -10.475)" fill="#091d5c"/>
    <path id="Caminho_305" data-name="Caminho 305" d="M29.681,25.3V37.345a4.4,4.4,0,0,0,.924,3.08,3.794,3.794,0,0,0,2.923,1,3.794,3.794,0,0,0,2.923-1,4.431,4.431,0,0,0,.919-3.08V31.087l5.561-5.561v12.3a7.676,7.676,0,0,1-2.461,6.16,10.239,10.239,0,0,1-6.9,2.122q-4.4,0-6.764-2.083t-2.363-6.2V25.29h5.241Z" transform="translate(-12.444 -9.234)" fill="#091d5c"/>
    <path id="Caminho_306" data-name="Caminho 306" d="M78.875,35.931a5.609,5.609,0,0,0-2.2-1.862,19.3,19.3,0,0,0-3.321-1.14,11.037,11.037,0,0,1-2.761-1.022,1.579,1.579,0,0,1-.8-1.42,1.394,1.394,0,0,1,.7-1.218,3.2,3.2,0,0,1,1.778-.462,11.566,11.566,0,0,1,2.923.4c.26.069.511.142.761.221V28.213L72.219,24.48A9.546,9.546,0,0,0,66.324,26.2a5.69,5.69,0,0,0-2.26,4.8q0,4.723,5.521,6.16a20.383,20.383,0,0,1,3.2,1.081,1.512,1.512,0,0,1,1,1.4,1.426,1.426,0,0,1-.8,1.243,4.471,4.471,0,0,1-2.279.481,11.192,11.192,0,0,1-2.923-.418,14.878,14.878,0,0,1-2.839-1.1L63.47,43.894a20.237,20.237,0,0,0,3.581,1.3,14.338,14.338,0,0,0,3.66.5,11.554,11.554,0,0,0,6.524-1.68,5.47,5.47,0,0,0,2.52-4.844A5.491,5.491,0,0,0,78.875,35.931Z" transform="translate(-32.302 -8.822)" fill="#091d5c"/>
    <path id="Caminho_307" data-name="Caminho 307" d="M103.363,17.953a2.987,2.987,0,0,1,.609-2.073,2.017,2.017,0,0,1,1.557-.668,4.452,4.452,0,0,1,.506.034v-1.2l-2.9-2.9a6.42,6.42,0,0,0-3.218,1.5q-1.842,1.695-1.847,5.305v1.371H95.14v4.225h2.888V38.305h5.286V23.549h4.338V19.324h-4.3V17.953Z" transform="translate(-48.414 -2.035)" fill="#091d5c"/>
  </g>
</svg>
