<?xml version="1.0" encoding="utf-8"?>
<!-- Generator: Adobe Illustrator 25.1.0, SVG Export Plug-In . SVG Version: 6.00 Build 0)  -->
<svg version="1.1" id="Layer_1" xmlns="http://www.w3.org/2000/svg" xmlns:xlink="http://www.w3.org/1999/xlink" x="0px" y="0px"
	 viewBox="0 0 139 55.1" style="enable-background:new 0 0 139 55.1;" xml:space="preserve">
<style type="text/css">
	.st0{enable-background:new    ;}
	.st1{fill:#5B9CF5;}
	.st2{fill:#091D5C;}
</style>
<g class="st0">
	<path class="st1" d="M69.9,22.9h-3.4V15h3.4v-0.9c0-8.1,5-12.1,14.3-11.5v8c-3.6-0.2-5,0.9-5,4.2V15h5.1v7.9h-5.1v23h-9.5v-23H69.9
		z"/>
	<path class="st1" d="M83.7,6.8c0-2.8,2.3-5.2,5.6-5.2c3.3,0,5.5,2.3,5.5,5.2c0,2.8-2.3,5.1-5.5,5.1C86,11.9,83.7,9.6,83.7,6.8z
		 M84.6,15.2h9.5V46h-9.5V15.2z"/>
	<path class="st1" d="M96.6,5h9.5v41h-9.5V5z"/>
	<path class="st1" d="M122.2,46.4c-9,0-15.6-6.1-15.6-15.9s6.4-15.9,15.6-15.9c9,0,15.3,6,15.3,15.3c0,0.9,0,1.8-0.1,2.8H116
		c0.3,4.1,2.8,5.9,5.9,5.9c2.7,0,4.2-1.4,5-2.9h10C135.4,41.8,129.9,46.4,122.2,46.4z M116.1,27.6h11.8c0-3.4-2.7-5.3-5.8-5.3
		C119,22.3,116.7,24.1,116.1,27.6z"/>
</g>
<path id="Path_303" class="st2" d="M3.4,47.8c0.8,0,1.7-0.3,2.2-1c0.6-0.8,0.9-1.9,0.8-2.9V13.5h8.4L15,44.1
	c0.2,2.9-0.8,5.9-2.8,8.1c-1.9,2-4.6,3.1-7.4,2.9c-1.6,0-3.3-0.3-4.8-0.8l1.6-6.9C2.2,47.7,2.8,47.8,3.4,47.8z M15,0v8.2H6.4V0H15z"
	/>
<path id="Path_305" class="st2" d="M25.9,13.5v18.1c-0.1,1.7,0.4,3.3,1.4,4.6c1.2,1.1,2.8,1.7,4.4,1.5c1.6,0.1,3.2-0.4,4.4-1.5
	c1-1.3,1.5-3,1.4-4.6v-9.4l8.4-8.4v18.5c0,4.1-1.2,7.1-3.7,9.3c-2.5,2.1-5.9,3.2-10.4,3.2c-4.4,0-7.8-1-10.2-3.1S18,36.5,18,32.4
	v-19L25.9,13.5L25.9,13.5z"/>
<path id="Path_306" class="st2" d="M70,30.1c-0.8-1.2-2-2.2-3.3-2.8c-1.6-0.7-3.3-1.3-5-1.7c-1.4-0.3-2.8-0.8-4.1-1.5
	c-0.8-0.4-1.2-1.3-1.2-2.1s0.4-1.5,1-1.8c0.8-0.5,1.7-0.7,2.7-0.7c1.5,0,3,0.2,4.4,0.6c0.4,0.1,0.8,0.2,1.1,0.3v-1.8L60,12.8
	c-3.2-0.1-6.3,0.8-8.9,2.6c-2.3,1.7-3.5,4.4-3.4,7.2c0,4.7,2.8,7.8,8.3,9.3c1.6,0.4,3.3,1,4.8,1.6c0.9,0.3,1.5,1.2,1.5,2.1
	c0,0.8-0.5,1.5-1.2,1.9c-1.1,0.5-2.2,0.8-3.4,0.7c-1.5,0-3-0.2-4.4-0.6c-1.5-0.4-2.9-1-4.3-1.7L46.9,42c1.7,0.8,3.5,1.5,5.4,2
	c1.8,0.5,3.6,0.7,5.5,0.8c3.4,0.1,6.9-0.7,9.8-2.5C71.4,39.4,72.5,34.1,70,30.1L70,30.1z"/>
</svg>
