<?xml version="1.0" encoding="utf-8"?>
<!-- Generator: Adobe Illustrator 25.1.0, SVG Export Plug-In . SVG Version: 6.00 Build 0)  -->
<svg version="1.1" id="Layer_1" xmlns="http://www.w3.org/2000/svg" xmlns:xlink="http://www.w3.org/1999/xlink" x="0px" y="0px"
	 viewBox="0 0 231.2 55.1" style="enable-background:new 0 0 231.2 55.1;" xml:space="preserve">
<style type="text/css">
	.st0{enable-background:new    ;}
	.st1{fill:#6C63FF;}
	.st2{fill:#091D5C;}
</style>
<g class="st0">
	<path class="st1" d="M110.2,28c0-4-2.3-6.1-5.7-6.1c-3.4,0-5.7,2.2-5.7,6.1v16.3h-9.2V28c0-4-2.3-6.1-5.7-6.1
		c-3.4,0-5.7,2.2-5.7,6.1v16.3h-9.5V14.2h9.3v3.8c1.8-2.4,4.9-4.1,8.8-4.1c4.5,0,8.2,2,10.3,5.6c2-3.2,5.7-5.6,10.1-5.6
		c7.5,0,12.2,4.7,12.2,12.9v17.7h-9.2V28z"/>
	<path class="st1" d="M133.1,13.7c4.5,0,7.7,2.1,9.3,4.7v-4.3h9.3v30.1h-9.3V40c-1.7,2.6-4.9,4.7-9.4,4.7c-7.4,0-13.2-6.1-13.2-15.6
		S125.7,13.7,133.1,13.7z M135.8,21.8c-3.4,0-6.6,2.6-6.6,7.4s3.1,7.5,6.6,7.5s6.6-2.6,6.6-7.5S139.4,21.8,135.8,21.8z"/>
	<path class="st1" d="M155.6,21.8h-3.6v-7.7h3.6V6.8h9.3v7.4h6.1v7.7h-6.1V34c0,1.8,0.8,2.5,2.8,2.5h3.3v7.7h-4.7
		c-6.3,0-10.7-2.6-10.7-10.5v-12H155.6z"/>
	<path class="st1" d="M185,13.7c7.6,0,12.9,4.2,14.5,11.4h-9.8c-0.8-2.1-2.3-3.4-4.9-3.4c-3.3,0-5.5,2.6-5.5,7.6s2.3,7.6,5.5,7.6
		c2.5,0,4-1.2,4.9-3.4h9.8c-1.5,7-7,11.4-14.5,11.4c-8.8,0-15.1-6-15.1-15.6S176.2,13.7,185,13.7z"/>
	<path class="st1" d="M200.3,4.3h9.3v13.9c1.9-2.6,5.2-4.4,9.3-4.4c6.8,0,11.5,4.7,11.5,12.9v17.7h-9.2V28c0-4.1-2.3-6.4-5.7-6.4
		s-5.7,2.3-5.7,6.4v16.3h-9.3v-40H200.3z"/>
</g>
<path id="Path_303" class="st2" d="M3.4,47.8c0.8,0,1.7-0.3,2.2-1c0.6-0.8,0.9-1.9,0.8-2.9V13.5h8.4L15,44.1
	c0.2,2.9-0.8,5.9-2.8,8.1c-1.9,2-4.6,3.1-7.4,2.9c-1.6,0-3.3-0.3-4.8-0.8l1.6-6.9C2.2,47.7,2.8,47.8,3.4,47.8z M15,0v8.2H6.4V0H15z"
	/>
<path id="Path_305" class="st2" d="M25.9,13.5v18.1c-0.1,1.7,0.4,3.3,1.4,4.6c1.2,1.1,2.8,1.7,4.4,1.5c1.6,0.1,3.2-0.4,4.4-1.5
	c1-1.3,1.5-3,1.4-4.6v-9.4l8.4-8.4v18.5c0,4.1-1.2,7.1-3.7,9.3c-2.5,2.1-5.9,3.2-10.4,3.2c-4.4,0-7.8-1-10.2-3.1
	c-2.4-2.1-3.6-5.2-3.6-9.3v-19L25.9,13.5L25.9,13.5z"/>
<path id="Path_306" class="st2" d="M70,30.1c-0.8-1.2-2-2.2-3.3-2.8c-1.6-0.7-3.3-1.3-5-1.7c-1.4-0.3-2.8-0.8-4.1-1.5
	c-0.8-0.4-1.2-1.3-1.2-2.1s0.4-1.5,1-1.8c0.8-0.5,1.7-0.7,2.7-0.7c1.5,0,3,0.2,4.4,0.6c0.4,0.1,0.8,0.2,1.1,0.3v-1.8L60,12.8
	c-3.2-0.1-6.3,0.8-8.9,2.6c-2.3,1.7-3.5,4.4-3.4,7.2c0,4.7,2.8,7.8,8.3,9.3c1.6,0.4,3.3,1,4.8,1.6c0.9,0.3,1.5,1.2,1.5,2.1
	c0,0.8-0.5,1.5-1.2,1.9c-1.1,0.5-2.2,0.8-3.4,0.7c-1.5,0-3-0.2-4.4-0.6c-1.5-0.4-2.9-1-4.3-1.7L46.9,42c1.7,0.8,3.5,1.5,5.4,2
	c1.8,0.5,3.6,0.7,5.5,0.8c3.4,0.1,6.9-0.7,9.8-2.5C71.4,39.4,72.5,34.1,70,30.1L70,30.1z"/>
</svg>
