<svg xmlns="http://www.w3.org/2000/svg" width="2520.264" height="822.748" viewBox="0 0 2520.264 822.748">
  <g id="Grupo_1776" data-name="Grupo 1776" transform="translate(4183.369 17435.047)">
    <g id="Grupo_1772" data-name="Grupo 1772" transform="translate(-4183.369 -17614.99)">
      <path id="Caminho_440" data-name="Caminho 440" d="M177.546-365v-60.2H47.244V202.692h130.3V-59.436C201.168-23.622,246.126,6.1,308.61,6.1,413,6.1,496.062-79.248,496.062-213.36S413-431.292,308.61-431.292C246.126-431.292,201.168-402.336,177.546-365ZM363.474-213.36c0,67.818-44.2,105.918-93.726,105.918-48.768,0-92.964-37.338-92.964-105.156s44.2-105.156,92.964-105.156C319.278-317.754,363.474-281.178,363.474-213.36Zm270.51,16c0-73.152,35.814-94.488,97.536-94.488h35.814V-429.768c-57.15,0-103.632,30.48-133.35,75.438V-425.2h-130.3V0h130.3ZM956.31-326.9c43.434,0,80.01,26.67,80.01,73.152H873.252C880.872-300.99,913.638-326.9,956.31-326.9ZM1159.764-140.97H1021.08c-10.668,22.86-31.242,41.148-67.818,41.148-41.91,0-76.2-25.908-80.772-81.534h294.894a329.29,329.29,0,0,0,2.286-38.1c0-129.54-87.63-211.836-211.836-211.836-126.492,0-214.884,83.82-214.884,218.694S832.866,6.1,957.834,6.1C1063.752,6.1,1139.19-57.912,1159.764-140.97ZM1136.9-425.2,1287.78,0h160.782l150.876-425.2H1460.754l-92.2,303.276L1276.35-425.2Z" transform="translate(920.826 800)" fill="#ffbb2a"/>
      <path id="Path_303" data-name="Path 303" d="M48.256,669.828a39.273,39.273,0,0,0,31.172-13.463q11.808-13.512,11.807-41.322V188.171h117.23l1.657,430.189c.518,47.845-12.428,85.437-38.834,113.088Q131.674,772.77,67.521,772.77A216.3,216.3,0,0,1,0,761.788l22.782-97.036A68.532,68.532,0,0,0,48.256,669.828ZM211.053,0V115.573H89.578V0Z" transform="translate(0 179.943)" fill="#091d5c"/>
      <path id="Path_305" data-name="Path 305" d="M191.233,60.114V314.046c0,29.2,6.42,50.951,19.469,64.932Q230.12,400.1,272.32,400.1q42.254,0,61.619-21.125,19.419-21.127,19.365-64.932V182.107l117.23-117.23V324.089q0,85.284-51.883,129.865-51.9,44.739-145.5,44.739-92.74,0-142.6-43.911-49.864-43.8-49.812-130.8V59.907h110.5Z" transform="translate(172.57 308.006)" fill="#091d5c"/>
      <path id="Path_306" data-name="Path 306" d="M534.322,298.633a118.224,118.224,0,0,0-46.4-39.248,406.73,406.73,0,0,0-70.006-24.025q-41.323-11.027-58.2-21.54a33.294,33.294,0,0,1-16.881-29.93,29.4,29.4,0,0,1,14.706-25.684,67.423,67.423,0,0,1,37.488-9.727,243.736,243.736,0,0,1,61.619,8.39c5.488,1.45,10.772,3,16.052,4.659v-25.59L394,57.233q-76.892.315-124.274,36.245c-31.793,24.232-47.638,57.892-47.638,101.281q0,99.573,116.4,129.865c30.965,8.39,53.436,16.052,67.521,22.782s21.125,16.57,21.125,29.515c0,10.668-5.591,19.365-16.88,26.2-11.3,6.73-27.237,10.15-48.052,10.15a235.89,235.89,0,0,1-61.619-8.8,313.536,313.536,0,0,1-59.872-23.2L209.556,466.5a426.566,426.566,0,0,0,75.5,27.444,302.187,302.187,0,0,0,77.153,10.564q84.352,0,137.527-35.417,53.126-35.416,53.126-102.11Q552.859,324.727,534.322,298.633Z" transform="translate(447.94 302.284)" fill="#091d5c"/>
    </g>
  </g>
</svg>
