<svg xmlns="http://www.w3.org/2000/svg" width="104.494" height="104.494" viewBox="0 0 104.494 104.494">
  <g id="Grupo_1496" data-name="Grupo 1496" transform="translate(-747.754 -323.318)">
    <path id="Caminho_403" data-name="Caminho 403" d="M44.4,0a44.4,44.4,0,1,0,44.4,44.4A44.447,44.447,0,0,0,44.4,0Zm0,0" transform="translate(755.604 331.168)" fill="#33a273" opacity="0.13"/>
    <g id="check" transform="translate(765 340.131)">
      <path id="Caminho_403-2" data-name="Caminho 403" d="M35.435,0A35.435,35.435,0,1,0,70.869,35.435,35.474,35.474,0,0,0,35.435,0Zm0,0" fill="#41c78f"/>
      <path id="Caminho_404" data-name="Caminho 404" d="M175.16,170.37l-19.194,19.193a2.95,2.95,0,0,1-4.175,0l-9.6-9.6a2.952,2.952,0,1,1,4.175-4.175l7.509,7.509,17.106-17.106a2.952,2.952,0,1,1,4.175,4.175Zm0,0" transform="translate(-121.766 -142.444)" fill="#fafafa"/>
    </g>
    <path id="Caminho_405" data-name="Caminho 405" d="M52.247,0a52.247,52.247,0,1,0,52.247,52.247A52.3,52.3,0,0,0,52.247,0Zm0,0" transform="translate(747.754 323.318)" fill="#33a273" opacity="0.035"/>
  </g>
</svg>
