<svg xmlns="http://www.w3.org/2000/svg" width="520.081" height="246.293" viewBox="0 0 520.081 246.293">
  <g id="logo" transform="translate(0.02 -7.14)">
    <path id="Path_303" data-name="Path 303" d="M15.361,220.625a12.519,12.519,0,0,0,9.935-4.291q3.763-4.307,3.763-13.17V67.113H66.422l.528,137.108c.165,15.249-3.961,27.23-12.377,36.043q-12.625,13.17-33.072,13.17a68.925,68.925,0,0,1-21.52-3.5l7.261-30.927A21.833,21.833,0,0,0,15.361,220.625ZM67.247,7.14V43.975H28.531V7.14Z" transform="translate(0 0)" fill="#091d5c"/>
    <path id="Path_304" data-name="Path 304" d="M200.791,27.73l-27.032,81.1-27.032-81.1H124.645V65.654l32.742,80.635c-3.631,10.892-10.133,16.371-19.441,16.371a34.184,34.184,0,0,1-8.285-.957l-6.172,28.22q12.08,2.822,19.672,2.839a37.416,37.416,0,0,0,25.976-9.737q10.793-9.7,19.573-32.478L235.91,27.73H200.791Z" transform="translate(284.152 47.37)" fill="#41c78f"/>
    <path id="Path_305" data-name="Path 305" d="M59.658,25.356v80.932c0,9.308,2.046,16.239,6.205,20.695q6.189,6.733,19.639,6.733,13.467,0,19.639-6.733,6.189-6.733,6.172-20.695V64.237l37.363-37.363v82.615q0,27.181-16.536,41.39Q115.6,165.138,85.766,165.138q-29.557,0-45.45-13.995Q24.423,137.182,24.44,109.456V25.29H59.658Z" transform="translate(56.274 41.757)" fill="#091d5c"/>
    <path id="Path_306" data-name="Path 306" d="M166.978,101.418a37.684,37.684,0,0,0-14.787-12.509,129.668,129.668,0,0,0-22.312-7.657q-13.17-3.515-18.55-6.865a10.612,10.612,0,0,1-5.38-9.539,9.369,9.369,0,0,1,4.687-8.186,21.489,21.489,0,0,1,11.948-3.1,77.711,77.711,0,0,1,19.639,2.674c1.749.462,3.433.957,5.116,1.485V49.565L122.254,24.48q-24.507.1-39.608,11.552c-10.133,7.723-15.183,18.451-15.183,32.28q0,31.736,37.1,41.39c9.869,2.674,17.031,5.116,21.52,7.261s6.733,5.281,6.733,9.407c0,3.4-1.782,6.172-5.38,8.351-3.6,2.145-8.681,3.235-15.315,3.235a75.2,75.2,0,0,1-19.639-2.806A99.969,99.969,0,0,1,73.4,127.757L63.47,154.921a135.976,135.976,0,0,0,24.062,8.747,96.335,96.335,0,0,0,24.59,3.367q26.884,0,43.832-11.288,16.932-11.288,16.932-32.544Q172.886,109.735,166.978,101.418Z" transform="translate(146.067 39.893)" fill="#091d5c"/>
    <path id="Path_307" data-name="Path 307" d="M150.393,56.92c0-6.3,1.353-10.958,4.093-13.929A13.554,13.554,0,0,1,164.948,38.5a29.915,29.915,0,0,1,3.4.231V30.647L148.841,11.14c-8.846,1.683-16.074,5.017-21.619,10.1q-12.377,11.387-12.41,35.647V66.1H95.14V94.481h19.408v99.184h35.515V94.514h29.145V66.129h-28.88V56.92Z" transform="translate(218.929 9.203)" fill="#41c78f"/>
  </g>
</svg>
