<svg xmlns="http://www.w3.org/2000/svg" width="186.432" height="28.294" viewBox="0 0 186.432 28.294">
  <g id="Grupo_1561" data-name="Grupo 1561" transform="translate(-1253.568 -72)">
    <text id="AMBIENTE_SEGURO" data-name="AMBIENTE SEGURO" transform="translate(1297 91.846)" fill="#0a1e5d" font-size="16" font-family="Poppins-Regular, Poppins" opacity="0.401"><tspan x="0" y="0">AMBIENTE SEGURO</tspan></text>
    <path id="Caminho_159" data-name="Caminho 159" d="M63.191,4.582,52.36.085a1.105,1.105,0,0,0-.848,0l-10.831,4.5A1.105,1.105,0,0,0,40,5.6v5.467A18.509,18.509,0,0,0,51.519,28.212a1.105,1.105,0,0,0,.835,0A18.509,18.509,0,0,0,63.873,11.069V5.6A1.105,1.105,0,0,0,63.191,4.582Zm-1.529,6.487a16.3,16.3,0,0,1-9.726,14.919A16.3,16.3,0,0,1,42.21,11.069V6.34L51.936,2.3,61.662,6.34ZM50.715,14.794l4.75-4.75a1.105,1.105,0,1,1,1.563,1.563L51.5,17.139a1.105,1.105,0,0,1-1.563,0L46.845,14.05a1.105,1.105,0,0,1,1.563-1.563Z" transform="translate(1213.568 72)" fill="#0a1e5d"/>
  </g>
</svg>
