<svg xmlns="http://www.w3.org/2000/svg" width="171.3" height="67.987" viewBox="0 0 171.3 67.987">
  <g id="Group_85" data-name="Group 85" transform="translate(-1421 407)">
    <path id="Path_410" data-name="Path 410" d="M.236,1.456A6.086,6.086,0,0,0,6.544,7.841a5.815,5.815,0,0,0,5.961-4.382H9.143a2.767,2.767,0,0,1-2.629,1.61A3.207,3.207,0,0,1,3.348,1.456,3.207,3.207,0,0,1,6.514-2.157,2.767,2.767,0,0,1,9.143-.547h3.362a5.831,5.831,0,0,0-5.961-4.4,6.1,6.1,0,0,0-6.308,6.4Zm26.493-.018a6.262,6.262,0,0,0-6.408-6.421,6.3,6.3,0,0,0-6.457,6.421,6.316,6.316,0,0,0,6.457,6.439,6.288,6.288,0,0,0,6.408-6.439Zm-9.748,0a3.35,3.35,0,1,1,6.661,0,3.343,3.343,0,1,1-6.648,0ZM28.441,7.752h3.066V.2l2.818,7.548h2.468L39.6.222v7.53H42.67V-4.8H39.065L35.577,3.883,32.054-4.8H28.441ZM47.918.812V-2.336h1.663c1.216,0,1.735.608,1.735,1.574S50.806.812,49.582.812Zm6.51-1.574c0-2.3-1.533-4.042-4.614-4.042H44.87V7.752h3.066V3.245h1.9a4.045,4.045,0,0,0,3.209-.958A4.045,4.045,0,0,0,54.429-.762ZM56.02-4.8V7.752h7.065V5.391H59.079V-4.8Zm16.222,0h-7.7V7.752h7.691V5.3H67.61V2.547H71.7V.186H67.61v-2.54h4.632Zm1.306,2.45H76.87V7.752h3.066V-2.354h3.322V-4.8H73.548ZM97.157,1.438a6.262,6.262,0,0,0-6.421-6.421,6.3,6.3,0,0,0-6.457,6.421,6.316,6.316,0,0,0,6.457,6.439,6.288,6.288,0,0,0,6.421-6.439Zm-9.748,0a3.341,3.341,0,1,1,6.643,0,3.34,3.34,0,1,1-6.643,0Z" transform="translate(1495.141 -346.892)" fill="#2e3f75" opacity="0.601"/>
    <g id="Group_82" data-name="Group 82" transform="translate(1421 -420)">
      <path id="Path_174" data-name="Path 174" d="M82.9,26.9c7.7,0,13.1,4.2,14.7,11.5h-10a4.9,4.9,0,0,0-4.9-3.5c-3.4,0-5.7,2.6-5.7,7.8s2.3,7.8,5.7,7.8A4.791,4.791,0,0,0,87.6,47h10c-1.6,7.1-7,11.5-14.7,11.5-9,0-15.4-6-15.4-15.8C67.5,33,73.9,26.9,82.9,26.9Z" fill="#41c78f"/>
      <path id="Path_175" data-name="Path 175" d="M109.9,26.9c4.6,0,7.8,2.1,9.5,4.8V27.4h9.4V58h-9.4V53.7c-1.7,2.7-4.9,4.8-9.5,4.8-7.5,0-13.5-6.2-13.5-15.8C96.4,32.9,102.4,26.9,109.9,26.9Zm2.8,8.2c-3.5,0-6.7,2.6-6.7,7.5s3.2,7.6,6.7,7.6c3.6,0,6.7-2.7,6.7-7.6S116.3,35.1,112.7,35.1Z" fill="#41c78f"/>
      <path id="Path_176" data-name="Path 176" d="M131.2,17.3h9.4V58h-9.4Z" fill="#41c78f"/>
      <path id="Path_177" data-name="Path 177" d="M156.6,26.9c7.7,0,13.1,4.2,14.7,11.5h-10a4.9,4.9,0,0,0-4.9-3.5c-3.4,0-5.7,2.6-5.7,7.8s2.3,7.8,5.7,7.8a4.791,4.791,0,0,0,4.9-3.5h10c-1.6,7.1-7,11.5-14.7,11.5-9,0-15.4-6-15.4-15.8C141.2,33,147.6,26.9,156.6,26.9Z" fill="#41c78f"/>
    </g>
    <path id="Path_303" d="M3.4,60.8a2.7,2.7,0,0,0,2.2-1,4.28,4.28,0,0,0,.8-2.9V26.5h8.4L15,57.1a11.041,11.041,0,0,1-2.8,8.1,9.305,9.305,0,0,1-7.4,2.9A15.584,15.584,0,0,1,0,67.3l1.6-6.9A3.922,3.922,0,0,0,3.4,60.8ZM15,13v8.2H6.4V13Z" transform="translate(1421 -420)" fill="#091d5c"/>
    <path id="Path_305" d="M25.9,26.5V44.6a6.812,6.812,0,0,0,1.4,4.6,5.553,5.553,0,0,0,4.4,1.5,5.932,5.932,0,0,0,4.4-1.5,6.976,6.976,0,0,0,1.4-4.6V35.2l8.4-8.4V45.3c0,4.1-1.2,7.1-3.7,9.3-2.5,2.1-5.9,3.2-10.4,3.2-4.4,0-7.8-1-10.2-3.1S18,49.5,18,45.4v-19l7.9.1Z" transform="translate(1421 -420)" fill="#091d5c"/>
    <path id="Path_306" d="M70,43.1a8.14,8.14,0,0,0-3.3-2.8,29.458,29.458,0,0,0-5-1.7,15.572,15.572,0,0,1-4.1-1.5A2.351,2.351,0,0,1,56.4,35a1.981,1.981,0,0,1,1-1.8,4.953,4.953,0,0,1,2.7-.7,16.115,16.115,0,0,1,4.4.6c.4.1.8.2,1.1.3V31.6L60,25.8a14.759,14.759,0,0,0-8.9,2.6,8.5,8.5,0,0,0-3.4,7.2c0,4.7,2.8,7.8,8.3,9.3a38.591,38.591,0,0,1,4.8,1.6,2.166,2.166,0,0,1,.3,4,6.722,6.722,0,0,1-3.4.7,16.115,16.115,0,0,1-4.4-.6A22.629,22.629,0,0,1,49,48.9L46.9,55a31.572,31.572,0,0,0,5.4,2,25.176,25.176,0,0,0,5.5.8,17.724,17.724,0,0,0,9.8-2.5A9.258,9.258,0,0,0,70,43.1Z" transform="translate(1421 -420)" fill="#091d5c"/>
  </g>
</svg>
