<svg xmlns="http://www.w3.org/2000/svg" width="66.904" height="31.5" viewBox="0 0 66.904 31.5">
  <g id="Grupo_1561" data-name="Grupo 1561" transform="translate(-5308.449 23163.82)">
    <text id="FGTS" transform="translate(5357.353 -23134.32)" fill="#2e3f75" font-size="7" font-family="Poppins-Bold, Poppins" font-weight="700" opacity="0.601"><tspan x="0" y="0">FGTS</tspan></text>
    <text id="calc" transform="translate(5336.353 -23142.82)" fill="#41c78f" font-size="20" font-family="Poppins-SemiBold, Poppins" font-weight="600" letter-spacing="-0.08em" opacity="0.997"><tspan x="0" y="0">calc</tspan></text>
    <path id="Caminho_303" data-name="Caminho 303" d="M1.413,27.031a1.166,1.166,0,0,0,.926-.4A1.826,1.826,0,0,0,2.689,25.4V12.728H6.171L6.22,25.5a4.58,4.58,0,0,1-1.153,3.358,4.074,4.074,0,0,1-3.081,1.227A6.422,6.422,0,0,1-.02,29.762L.657,26.88A2.034,2.034,0,0,0,1.413,27.031ZM6.247,7.14v3.432H2.64V7.14Z" transform="translate(5308.469 -23168.111)" fill="#0a1e5d"/>
    <path id="Caminho_305" data-name="Caminho 305" d="M27.721,25.3v7.541a2.754,2.754,0,0,0,.578,1.928,2.375,2.375,0,0,0,1.83.627,2.375,2.375,0,0,0,1.83-.627,2.774,2.774,0,0,0,.575-1.928V28.919l3.481-3.481v7.7a4.805,4.805,0,0,1-1.541,3.856,6.41,6.41,0,0,1-4.321,1.329,6.2,6.2,0,0,1-4.235-1.3,4.9,4.9,0,0,1-1.479-3.884V25.29h3.281Z" transform="translate(5291.531 -23180.68)" fill="#0a1e5d"/>
    <path id="Caminho_306" data-name="Caminho 306" d="M73.114,31.648a3.511,3.511,0,0,0-1.378-1.166,12.082,12.082,0,0,0-2.079-.713,6.91,6.91,0,0,1-1.728-.64.989.989,0,0,1-.5-.889.873.873,0,0,1,.437-.763,2,2,0,0,1,1.113-.289,7.24,7.24,0,0,1,1.83.249c.163.043.32.089.477.138v-.76L68.947,24.48a5.976,5.976,0,0,0-3.69,1.076,3.562,3.562,0,0,0-1.415,3.008q0,2.957,3.457,3.856A12.761,12.761,0,0,1,69.3,33.1a.946.946,0,0,1,.627.876.892.892,0,0,1-.5.778,2.8,2.8,0,0,1-1.427.3,7.006,7.006,0,0,1-1.83-.261A9.314,9.314,0,0,1,64.4,34.1l-.926,2.531a12.669,12.669,0,0,0,2.242.815A8.976,8.976,0,0,0,68,37.762a7.233,7.233,0,0,0,4.084-1.052,3.811,3.811,0,0,0,1.027-5.062Z" transform="translate(5264.503 -23180.119)" fill="#0a1e5d"/>
  </g>
</svg>
