<svg xmlns="http://www.w3.org/2000/svg" width="171.3" height="71.766" viewBox="0 0 171.3 71.766">
  <g id="Group_84" data-name="Group 84" transform="translate(-1661 450.087)">
    <path id="Path_409" data-name="Path 409" d="M11.513,5.675c0-4.98-7.354-3.815-7.354-6.4A1.32,1.32,0,0,1,4.6-1.758a1.32,1.32,0,0,1,1.076-.322,1.611,1.611,0,0,1,1.185.411A1.611,1.611,0,0,1,7.39-.534h3.936c-.148-2.84-2.331-4.45-5.573-4.45C2.637-4.984.327-3.416.327-.6c-.033,5.277,7.4,3.793,7.4,6.548,0,.869-.678,1.4-1.738,1.4a1.7,1.7,0,0,1-1.844-1.7H.294C.4,8.663,2.9,10.253,6.1,10.253a4.789,4.789,0,0,0,5.413-4.577ZM13.751,10.1h3.633V-4.772H13.751Zm6.239,0h3.633V1.162L26.974,10.1H29.9l3.33-8.922V10.1h3.633V-4.772H32.59l-4.123,10.3L24.292-4.766h-4.3ZM43.068,1.882v-3.73h1.971c1.441,0,2.056.721,2.056,1.865s-.605,1.865-2.056,1.865ZM50.782.017c0-2.725-1.816-4.789-5.467-4.789H39.456V10.1h3.633V4.764h2.246A4.792,4.792,0,0,0,50.794.017Zm1.9-4.789V10.1h8.371v-2.8H56.319V-4.772Zm19.221,0H62.794V10.1h9.112V7.2H66.412V3.938h4.844V1.14H66.412V-1.869H71.9ZM85.067,5.675c0-4.98-7.354-3.815-7.354-6.4a1.32,1.32,0,0,1,.438-1.034,1.32,1.32,0,0,1,1.076-.322,1.611,1.611,0,0,1,1.185.411,1.611,1.611,0,0,1,.531,1.136h3.936c-.148-2.84-2.331-4.45-5.573-4.45-3.115,0-5.425,1.568-5.425,4.387-.042,5.277,7.4,3.793,7.4,6.548,0,.869-.678,1.4-1.738,1.4a1.7,1.7,0,0,1-1.844-1.7H73.829c.106,3.009,2.607,4.6,5.807,4.6a4.789,4.789,0,0,0,5.425-4.577Z" transform="translate(1747.233 -388.616)" fill="#2e3f75" opacity="0.601"/>
    <g id="Group_83" data-name="Group 83" transform="translate(1661 -463.087)">
      <path id="Path_174" data-name="Path 174" d="M82.9,26.9c7.7,0,13.1,4.2,14.7,11.5h-10a4.9,4.9,0,0,0-4.9-3.5c-3.4,0-5.7,2.6-5.7,7.8s2.3,7.8,5.7,7.8A4.791,4.791,0,0,0,87.6,47h10c-1.6,7.1-7,11.5-14.7,11.5-9,0-15.4-6-15.4-15.8C67.5,33,73.9,26.9,82.9,26.9Z" fill="#41c78f"/>
      <path id="Path_175" data-name="Path 175" d="M109.9,26.9c4.6,0,7.8,2.1,9.5,4.8V27.4h9.4V58h-9.4V53.7c-1.7,2.7-4.9,4.8-9.5,4.8-7.5,0-13.5-6.2-13.5-15.8C96.4,32.9,102.4,26.9,109.9,26.9Zm2.8,8.2c-3.5,0-6.7,2.6-6.7,7.5s3.2,7.6,6.7,7.6c3.6,0,6.7-2.7,6.7-7.6S116.3,35.1,112.7,35.1Z" fill="#41c78f"/>
      <path id="Path_176" data-name="Path 176" d="M131.2,17.3h9.4V58h-9.4Z" fill="#41c78f"/>
      <path id="Path_177" data-name="Path 177" d="M156.6,26.9c7.7,0,13.1,4.2,14.7,11.5h-10a4.9,4.9,0,0,0-4.9-3.5c-3.4,0-5.7,2.6-5.7,7.8s2.3,7.8,5.7,7.8a4.791,4.791,0,0,0,4.9-3.5h10c-1.6,7.1-7,11.5-14.7,11.5-9,0-15.4-6-15.4-15.8C141.2,33,147.6,26.9,156.6,26.9Z" fill="#41c78f"/>
    </g>
    <path id="Path_303" d="M3.4,60.8a2.7,2.7,0,0,0,2.2-1,4.28,4.28,0,0,0,.8-2.9V26.5h8.4L15,57.1a11.041,11.041,0,0,1-2.8,8.1,9.305,9.305,0,0,1-7.4,2.9A15.584,15.584,0,0,1,0,67.3l1.6-6.9A3.922,3.922,0,0,0,3.4,60.8ZM15,13v8.2H6.4V13Z" transform="translate(1661 -463.087)" fill="#091d5c"/>
    <path id="Path_305" d="M25.9,26.5V44.6a6.812,6.812,0,0,0,1.4,4.6,5.553,5.553,0,0,0,4.4,1.5,5.932,5.932,0,0,0,4.4-1.5,6.976,6.976,0,0,0,1.4-4.6V35.2l8.4-8.4V45.3c0,4.1-1.2,7.1-3.7,9.3-2.5,2.1-5.9,3.2-10.4,3.2-4.4,0-7.8-1-10.2-3.1S18,49.5,18,45.4v-19l7.9.1Z" transform="translate(1661 -463.087)" fill="#091d5c"/>
    <path id="Path_306" d="M70,43.1a8.14,8.14,0,0,0-3.3-2.8,29.458,29.458,0,0,0-5-1.7,15.572,15.572,0,0,1-4.1-1.5A2.351,2.351,0,0,1,56.4,35a1.981,1.981,0,0,1,1-1.8,4.953,4.953,0,0,1,2.7-.7,16.115,16.115,0,0,1,4.4.6c.4.1.8.2,1.1.3V31.6L60,25.8a14.759,14.759,0,0,0-8.9,2.6,8.5,8.5,0,0,0-3.4,7.2c0,4.7,2.8,7.8,8.3,9.3a38.591,38.591,0,0,1,4.8,1.6,2.166,2.166,0,0,1,.3,4,6.722,6.722,0,0,1-3.4.7,16.115,16.115,0,0,1-4.4-.6A22.629,22.629,0,0,1,49,48.9L46.9,55a31.572,31.572,0,0,0,5.4,2,25.176,25.176,0,0,0,5.5.8,17.724,17.724,0,0,0,9.8-2.5A9.258,9.258,0,0,0,70,43.1Z" transform="translate(1661 -463.087)" fill="#091d5c"/>
  </g>
</svg>
