<?xml version="1.0" encoding="utf-8"?>
<!-- Generator: Adobe Illustrator 25.1.0, SVG Export Plug-In . SVG Version: 6.00 Build 0)  -->
<svg version="1.1" id="Layer_1" xmlns="http://www.w3.org/2000/svg" xmlns:xlink="http://www.w3.org/1999/xlink" x="0px" y="0px"
	 viewBox="0 0 315.5 76" style="enable-background:new 0 0 315.5 76;" xml:space="preserve">
<style type="text/css">
	.st0{enable-background:new    ;}
	.st1{fill:#F49461;}
	.st2{fill:#091D5C;}
</style>
<g class="st0">
	<path class="st1" d="M78.6,57h-9.2V26.9h9.2v5c2.1-3.2,5.4-5.3,9.5-5.3v9.8h-2.5c-4.4,0-6.9,1.5-6.9,6.7V57z"/>
	<path class="st1" d="M101.6,57.4c-8.9,0-15.2-5.9-15.2-15.5c0-9.6,6.3-15.5,15.2-15.5c8.8,0,15,5.8,15,15c0,0.9-0.1,1.8-0.2,2.7
		H95.5c0.3,3.9,2.8,5.8,5.7,5.8c2.6,0,4.1-1.3,4.8-2.9h9.8C114.4,52.9,109.1,57.4,101.6,57.4z M95.6,39h11.6c0-3.3-2.6-5.2-5.7-5.2
		C98.5,33.8,96.1,35.7,95.6,39z"/>
	<path class="st1" d="M124.2,26.9l6.5,21.5l6.5-21.5h9.8L136.4,57H125l-10.7-30.1H124.2z"/>
	<path class="st1" d="M145.9,18.8c0-2.8,2.2-5,5.5-5c3.2,0,5.5,2.2,5.5,5c0,2.8-2.2,5-5.5,5C148.1,23.7,145.9,21.5,145.9,18.8z
		 M146.7,26.9h9.2V57h-9.2V26.9z"/>
	<path class="st1" d="M170.7,57.4c-8,0-13.4-4.5-13.9-10.3h9.1c0.2,2.1,2.1,3.5,4.6,3.5c2.4,0,3.6-1.1,3.6-2.4
		c0-4.9-16.4-1.4-16.4-12.4c0-5.1,4.4-9.3,12.3-9.3c7.8,0,12.1,4.3,12.7,10.3h-8.5c-0.3-2.1-1.8-3.4-4.4-3.4c-2.2,0-3.3,0.9-3.3,2.3
		c0,4.8,16.3,1.4,16.5,12.6C182.9,53.5,178.2,57.4,170.7,57.4z"/>
	<path class="st1" d="M183.4,18.8c0-2.8,2.2-5,5.5-5c3.2,0,5.5,2.2,5.5,5c0,2.8-2.2,5-5.5,5C185.6,23.7,183.4,21.5,183.4,18.8z
		 M184.3,26.9h9.2V57h-9.2V26.9z"/>
	<path class="st1" d="M209.6,57.4c-8.9,0-15.6-5.9-15.6-15.5c0-9.6,6.9-15.5,15.7-15.5c8.9,0,15.7,5.9,15.7,15.5
		C225.4,51.5,218.5,57.4,209.6,57.4z M209.6,49.4c3.3,0,6.4-2.4,6.4-7.5c0-5.1-3-7.5-6.3-7.5c-3.3,0-6.3,2.4-6.3,7.5
		C203.5,47,206.3,49.4,209.6,49.4z"/>
	<path class="st1" d="M246.8,40.6c0-4.1-2.3-6.4-5.8-6.4s-5.8,2.3-5.8,6.4V57h-9.2V26.9h9.2v4c1.8-2.5,5.1-4.3,9.1-4.3
		c7,0,11.6,4.8,11.6,12.9V57h-9.2V40.6z"/>
	<path class="st1" d="M269.6,26.4c4.5,0,7.7,2.1,9.3,4.7v-4.3h9.2V57h-9.2v-4.3c-1.7,2.6-4.9,4.7-9.3,4.7c-7.3,0-13.2-6-13.2-15.6
		S262.2,26.4,269.6,26.4z M272.3,34.5c-3.5,0-6.6,2.6-6.6,7.4c0,4.8,3.1,7.5,6.6,7.5c3.5,0,6.6-2.6,6.6-7.5
		C278.9,37.1,275.8,34.5,272.3,34.5z"/>
	<path class="st1" d="M290.6,17h9.2v40h-9.2V17z"/>
</g>
<path id="Path_303_1_" class="st2" d="M3.4,61.1c0.8,0,1.7-0.3,2.2-1c0.6-0.8,0.9-1.9,0.8-2.9V26.7h8.4L15,57.4
	c0.2,2.9-0.8,5.9-2.8,8.1c-1.9,2-4.6,3.1-7.4,2.9c-1.6,0-3.3-0.3-4.8-0.8l1.6-6.9C2.2,60.9,2.8,61.1,3.4,61.1z M15,13.3v8.2H6.4
	v-8.2H15z"/>
<path id="Path_305_1_" class="st2" d="M25.9,26.7v18.1c-0.1,1.7,0.4,3.3,1.4,4.6c1.2,1.1,2.8,1.7,4.4,1.5c1.6,0.1,3.2-0.4,4.4-1.5
	c1-1.3,1.5-3,1.4-4.6v-9.4l8.4-8.4v18.5c0,4.1-1.2,7.1-3.7,9.3c-2.5,2.1-5.9,3.2-10.4,3.2c-4.4,0-7.8-1-10.2-3.1S18,49.7,18,45.5
	V26.7L25.9,26.7L25.9,26.7z"/>
<path id="Path_306_1_" class="st2" d="M70,43.3c-0.8-1.2-2-2.2-3.3-2.8c-1.6-0.7-3.3-1.3-5-1.7c-1.4-0.3-2.8-0.8-4.1-1.5
	c-0.8-0.4-1.2-1.3-1.2-2.1c0-0.8,0.4-1.5,1-1.8c0.8-0.5,1.7-0.7,2.7-0.7c1.5,0,3,0.2,4.4,0.6c0.4,0.1,0.8,0.2,1.1,0.3v-1.8L60,26.1
	c-3.2-0.1-6.3,0.8-8.9,2.6c-2.3,1.7-3.5,4.4-3.4,7.2c0,4.7,2.8,7.8,8.3,9.3c1.6,0.4,3.3,1,4.8,1.6c0.9,0.3,1.5,1.2,1.5,2.1
	c0,0.8-0.5,1.5-1.2,1.9c-1.1,0.5-2.2,0.8-3.4,0.7c-1.5,0-3-0.2-4.4-0.6c-1.5-0.4-2.9-1-4.3-1.7l-2.2,6.1c1.7,0.8,3.5,1.5,5.4,2
	c1.8,0.5,3.6,0.7,5.5,0.8c3.4,0.1,6.9-0.7,9.8-2.5C71.4,52.7,72.5,47.4,70,43.3L70,43.3z"/>
</svg>
