<svg xmlns="http://www.w3.org/2000/svg" width="103.471" height="49.001" viewBox="0 0 103.471 49.001">
  <g id="Grupo_1487" data-name="Grupo 1487" transform="translate(-41.563 -31.89)">
    <path id="Caminho_303" data-name="Caminho 303" d="M3.04,49.613a2.491,2.491,0,0,0,1.977-.854,3.9,3.9,0,0,0,.749-2.62V19.072H13.2L13.3,46.35a9.78,9.78,0,0,1-2.463,7.171,8.7,8.7,0,0,1-6.58,2.62,13.713,13.713,0,0,1-4.281-.7l1.445-6.153A4.344,4.344,0,0,0,3.04,49.613ZM13.363,7.14v7.328H5.66V7.14Z" transform="translate(41.583 24.75)" fill="#091d5c"/>
    <path id="Caminho_304" data-name="Caminho 304" d="M138.869,27.73l-5.378,16.134L128.113,27.73H123.72v7.545l6.514,16.042c-.722,2.167-2.016,3.257-3.868,3.257a6.8,6.8,0,0,1-1.648-.19L123.49,60a18.062,18.062,0,0,0,3.914.565,7.444,7.444,0,0,0,5.168-1.937,16.855,16.855,0,0,0,3.894-6.462l9.39-24.435h-6.987Z" transform="translate(-0.822 17.681)" fill="#091d5c"/>
    <path id="Caminho_305" data-name="Caminho 305" d="M31.447,25.3V41.4a5.881,5.881,0,0,0,1.235,4.117,5.071,5.071,0,0,0,3.907,1.34,5.071,5.071,0,0,0,3.907-1.34A5.923,5.923,0,0,0,41.724,41.4V33.039l7.433-7.433V42.042q0,5.408-3.29,8.235t-9.226,2.837q-5.88,0-9.042-2.784T24.44,42.035V25.29h7.007Z" transform="translate(33.185 18.519)" fill="#091d5c"/>
    <path id="Caminho_306" data-name="Caminho 306" d="M84.063,39.787A7.5,7.5,0,0,0,81.121,37.3a25.8,25.8,0,0,0-4.439-1.523,14.754,14.754,0,0,1-3.69-1.366,2.111,2.111,0,0,1-1.07-1.9,1.864,1.864,0,0,1,.932-1.629,4.275,4.275,0,0,1,2.377-.617,15.461,15.461,0,0,1,3.907.532c.348.092.683.19,1.018.3V29.471L75.165,24.48a12.76,12.76,0,0,0-7.88,2.3A7.606,7.606,0,0,0,64.265,33.2q0,6.314,7.381,8.235a27.248,27.248,0,0,1,4.281,1.445,2.021,2.021,0,0,1,1.34,1.872,1.906,1.906,0,0,1-1.07,1.661,5.977,5.977,0,0,1-3.047.644,14.961,14.961,0,0,1-3.907-.558,19.889,19.889,0,0,1-3.8-1.471l-1.977,5.4a27.052,27.052,0,0,0,4.787,1.74,19.166,19.166,0,0,0,4.892.67A15.445,15.445,0,0,0,81.87,50.6a7.312,7.312,0,0,0,3.369-6.475A7.34,7.34,0,0,0,84.063,39.787Z" transform="translate(19.785 18.797)" fill="#091d5c"/>
    <path id="Caminho_307" data-name="Caminho 307" d="M106.133,20.248a3.993,3.993,0,0,1,.814-2.771,2.7,2.7,0,0,1,2.082-.893,5.952,5.952,0,0,1,.676.046V15.021l-3.881-3.881a8.582,8.582,0,0,0-4.3,2.009q-2.463,2.266-2.469,7.092v1.832H95.14v5.647H99V47.454h7.066V27.727h5.8V22.08h-5.746V20.248Z" transform="translate(8.912 23.377)" fill="#091d5c"/>
  </g>
</svg>
