<?xml version="1.0" encoding="utf-8"?>
<!-- Generator: Adobe Illustrator 25.1.0, SVG Export Plug-In . SVG Version: 6.00 Build 0)  -->
<svg version="1.1" id="Layer_1" xmlns="http://www.w3.org/2000/svg" xmlns:xlink="http://www.w3.org/1999/xlink" x="0px" y="0px"
	 viewBox="0 0 176.5 83.6" style="enable-background:new 0 0 176.5 83.6;" xml:space="preserve">
<style type="text/css">
	.st0{fill:#091D5C;}
	.st1{fill:#41C78F;}
</style>
<path id="Path_303" class="st0" d="M5.2,72.5C6.5,72.5,7.7,72,8.6,71c0.9-1.3,1.4-2.9,1.3-4.5V20.4h12.7l0.2,46.5
	c0.1,5.2-1.3,9.2-4.2,12.2c-2.9,3-7,4.6-11.2,4.5c-2.5,0-4.9-0.4-7.3-1.2l2.5-10.5C3.3,72.3,4.3,72.5,5.2,72.5z M22.8,0v12.5H9.7V0
	H22.8z"/>
<path id="Path_304" class="st1" d="M164.6,23.1l-9.2,27.5l-9.2-27.5h-7.5v12.9l11.1,27.4c-1.2,3.7-3.4,5.6-6.6,5.6
	c-0.9,0-1.9-0.1-2.8-0.3l-2.1,9.6c2.2,0.6,4.4,0.9,6.7,1c3.3,0.1,6.4-1.1,8.8-3.3c2.4-2.2,4.7-5.9,6.6-11l16-41.7H164.6z"/>
<path id="Path_305" class="st0" d="M39.4,20.4v27.5c0,3.2,0.7,5.5,2.1,7s3.6,2.3,6.7,2.3s5.3-0.8,6.7-2.3s2.1-3.9,2.1-7V33.6
	l12.7-12.7v28c0,6.2-1.9,10.8-5.6,14.1c-3.7,3.2-9,4.8-15.7,4.8c-6.7,0-11.8-1.6-15.4-4.8c-3.6-3.2-5.4-7.9-5.4-14.2V20.3L39.4,20.4
	L39.4,20.4z"/>
<path id="Path_306" class="st0" d="M106.3,45.5c-1.3-1.8-3-3.3-5-4.2c-2.4-1.1-5-2-7.6-2.6c-2.2-0.5-4.3-1.3-6.3-2.3
	c-1.2-0.7-1.9-1.9-1.8-3.2c0-1.1,0.6-2.2,1.6-2.8c1.2-0.7,2.6-1.1,4.1-1.1c2.3,0,4.5,0.3,6.7,0.9c0.6,0.2,1.2,0.3,1.7,0.5v-2.8
	l-8.5-8.5c-5.5,0-10,1.3-13.4,3.9c-3.4,2.6-5.4,6.7-5.2,11c0,7.2,4.2,11.9,12.6,14c2.5,0.6,4.9,1.4,7.3,2.5c1.4,0.5,2.3,1.8,2.3,3.2
	c0,1.2-0.7,2.3-1.8,2.8c-1.6,0.8-3.4,1.2-5.2,1.1c-2.3,0-4.5-0.3-6.7-1c-2.2-0.6-4.4-1.5-6.5-2.5l-3.4,9.2c2.6,1.2,5.4,2.2,8.2,3
	c2.7,0.7,5.5,1.1,8.3,1.1c6.1,0,11-1.3,14.9-3.8c3.7-2.4,5.9-6.6,5.7-11C108.4,50.3,107.7,47.7,106.3,45.5z"/>
<path id="Path_307" class="st1" d="M125.4,20c-0.1-1.7,0.4-3.4,1.4-4.7c0.9-1,2.2-1.6,3.6-1.5c0.4,0,0.8,0,1.2,0.1v-2.7l-6.6-6.6
	c-2.7,0.4-5.3,1.6-7.3,3.4c-2.8,2.6-4.2,6.6-4.2,12.1v3.1h-6.7v9.6h6.6v33.7h12.1V32.8h9.9v-9.6h-9.8L125.4,20L125.4,20z"/>
</svg>
