<?xml version="1.0" standalone="no"?>
<!DOCTYPE svg PUBLIC "-//W3C//DTD SVG 20010904//EN"
 "http://www.w3.org/TR/2001/REC-SVG-20010904/DTD/svg10.dtd">
<svg version="1.0" xmlns="http://www.w3.org/2000/svg"
 width="880.000000pt" height="880.000000pt" viewBox="0 0 880.000000 880.000000"
 preserveAspectRatio="xMidYMid meet">
<metadata>
Created by potrace 1.14, written by Peter Selinger 2001-2017
</metadata>
<g transform="translate(0.000000,880.000000) scale(0.100000,-0.100000)"
fill="#000000" stroke="none">
<path d="M4296 8782 c-3 -4 4 -9 15 -9 23 -2 25 3 4 10 -8 4 -16 3 -19 -1z"/>
<path d="M4414 8782 c4 -3 14 -7 22 -8 9 -1 13 0 10 4 -4 3 -14 7 -22 8 -9 1
-13 0 -10 -4z"/>
<path d="M4486 8778 c3 -5 10 -6 15 -3 13 9 11 12 -6 12 -8 0 -12 -4 -9 -9z"/>
<path d="M4196 8762 c-3 -5 1 -9 9 -9 8 0 12 4 9 9 -3 4 -7 8 -9 8 -2 0 -6 -4
-9 -8z"/>
<path d="M4774 8756 c1 -8 5 -18 8 -22 4 -3 5 1 4 10 -1 8 -5 18 -8 22 -4 3
-5 -1 -4 -10z"/>
<path d="M3854 8736 c1 -8 5 -18 8 -22 4 -3 5 1 4 10 -1 8 -5 18 -8 22 -4 3
-5 -1 -4 -10z"/>
<path d="M3886 8738 c3 -5 10 -6 15 -3 13 9 11 12 -6 12 -8 0 -12 -4 -9 -9z"/>
<path d="M3976 8742 c-2 -4 -1 -14 4 -22 7 -11 9 -9 7 8 -1 24 -3 26 -11 14z"/>
<path d="M4015 8740 c3 -5 8 -10 11 -10 2 0 4 5 4 10 0 6 -5 10 -11 10 -5 0
-7 -4 -4 -10z"/>
<path d="M4130 8740 c0 -5 5 -10 11 -10 5 0 7 5 4 10 -3 6 -8 10 -11 10 -2 0
-4 -4 -4 -10z"/>
<path d="M4330 8740 c0 -5 5 -10 11 -10 5 0 7 5 4 10 -3 6 -8 10 -11 10 -2 0
-4 -4 -4 -10z"/>
<path d="M4366 8738 c3 -5 10 -6 15 -3 13 9 11 12 -6 12 -8 0 -12 -4 -9 -9z"/>
<path d="M4693 8735 c0 -8 4 -12 9 -9 5 3 6 10 3 15 -9 13 -12 11 -12 -6z"/>
<path d="M4894 8742 c4 -3 14 -7 22 -8 9 -1 13 0 10 4 -4 3 -14 7 -22 8 -9 1
-13 0 -10 -4z"/>
<path d="M5010 8739 c0 -5 5 -7 10 -4 6 3 10 8 10 11 0 2 -4 4 -10 4 -5 0 -10
-5 -10 -11z"/>
<path d="M3759 8713 c-13 -16 -12 -17 4 -4 9 7 17 15 17 17 0 8 -8 3 -21 -13z"/>
<path d="M5175 8711 c-3 -5 -2 -12 3 -15 5 -3 9 1 9 9 0 17 -3 19 -12 6z"/>
<path d="M3579 8708 c-5 -18 -6 -38 -1 -34 7 8 12 36 6 36 -2 0 -4 -1 -5 -2z"/>
<path d="M3895 8700 c3 -5 8 -10 11 -10 2 0 4 5 4 10 0 6 -5 10 -11 10 -5 0
-7 -4 -4 -10z"/>
<path d="M4250 8700 c0 -5 5 -10 11 -10 5 0 7 5 4 10 -3 6 -8 10 -11 10 -2 0
-4 -4 -4 -10z"/>
<path d="M4695 8700 c3 -5 8 -10 11 -10 2 0 4 5 4 10 0 6 -5 10 -11 10 -5 0
-7 -4 -4 -10z"/>
<path d="M5115 8689 c-4 -6 -5 -12 -2 -15 2 -3 7 2 10 11 7 17 1 20 -8 4z"/>
<path d="M3627 8679 c7 -7 15 -10 18 -7 3 3 -2 9 -12 12 -14 6 -15 5 -6 -5z"/>
<path d="M3670 8680 c0 -5 5 -10 10 -10 6 0 10 5 10 10 0 6 -4 10 -10 10 -5 0
-10 -4 -10 -10z"/>
<path d="M3720 8680 c-9 -6 -10 -10 -3 -10 6 0 15 5 18 10 8 12 4 12 -15 0z"/>
<path d="M3795 8681 c-3 -5 -2 -12 3 -15 5 -3 9 1 9 9 0 17 -3 19 -12 6z"/>
<path d="M4993 8675 c0 -8 4 -12 9 -9 5 3 6 10 3 15 -9 13 -12 11 -12 -6z"/>
<path d="M5067 8679 c7 -7 15 -10 18 -7 3 3 -2 9 -12 12 -14 6 -15 5 -6 -5z"/>
<path d="M3413 8665 c0 -8 4 -12 9 -9 5 3 6 10 3 15 -9 13 -12 11 -12 -6z"/>
<path d="M4475 8671 c-3 -5 -2 -12 3 -15 5 -3 9 1 9 9 0 17 -3 19 -12 6z"/>
<path d="M5335 8671 c-3 -5 -2 -12 3 -15 5 -3 9 1 9 9 0 17 -3 19 -12 6z"/>
<path d="M5370 8659 c0 -5 5 -7 10 -4 6 3 10 8 10 11 0 2 -4 4 -10 4 -5 0 -10
-5 -10 -11z"/>
<path d="M4031 8647 c-8 -10 -7 -14 2 -14 8 0 14 6 14 14 0 7 -1 13 -2 13 -2
0 -8 -6 -14 -13z"/>
<path d="M4830 8656 c0 -2 8 -10 18 -17 15 -13 16 -12 3 4 -13 16 -21 21 -21
13z"/>
<path d="M3355 8641 c-3 -5 -2 -12 3 -15 5 -3 9 1 9 9 0 17 -3 19 -12 6z"/>
<path d="M3686 8642 c-3 -5 1 -9 9 -9 8 0 12 4 9 9 -3 4 -7 8 -9 8 -2 0 -6 -4
-9 -8z"/>
<path d="M3785 8639 c-3 -4 2 -6 10 -5 21 3 28 13 10 13 -9 0 -18 -4 -20 -8z"/>
<path d="M3860 8646 c0 -2 8 -10 18 -17 15 -13 16 -12 3 4 -13 16 -21 21 -21
13z"/>
<path d="M4159 8633 c-13 -16 -12 -17 4 -4 9 7 17 15 17 17 0 8 -8 3 -21 -13z"/>
<path d="M4280 8640 c-9 -6 -10 -10 -3 -10 6 0 15 5 18 10 8 12 4 12 -15 0z"/>
<path d="M4740 8646 c0 -2 8 -10 18 -17 15 -13 16 -12 3 4 -13 16 -21 21 -21
13z"/>
<path d="M3253 8625 c0 -8 4 -12 9 -9 5 3 6 10 3 15 -9 13 -12 11 -12 -6z"/>
<path d="M5573 8625 c0 -8 4 -12 9 -9 5 3 6 10 3 15 -9 13 -12 11 -12 -6z"/>
<path d="M3286 8622 c-3 -5 1 -9 9 -9 8 0 12 4 9 9 -3 4 -7 8 -9 8 -2 0 -6 -4
-9 -8z"/>
<path d="M4105 8620 c-3 -6 1 -7 9 -4 18 7 21 14 7 14 -6 0 -13 -4 -16 -10z"/>
<path d="M4190 8626 c0 -2 7 -7 16 -10 8 -3 12 -2 9 4 -6 10 -25 14 -25 6z"/>
<path d="M4235 8620 c3 -5 8 -10 11 -10 2 0 4 5 4 10 0 6 -5 10 -11 10 -5 0
-7 -4 -4 -10z"/>
<path d="M4466 8618 c3 -5 10 -6 15 -3 13 9 11 12 -6 12 -8 0 -12 -4 -9 -9z"/>
<path d="M4506 8622 c-3 -5 1 -9 9 -9 8 0 15 4 15 9 0 4 -4 8 -9 8 -6 0 -12
-4 -15 -8z"/>
<path d="M4955 8621 c-3 -5 -2 -12 3 -15 5 -3 9 1 9 9 0 17 -3 19 -12 6z"/>
<path d="M4269 8603 c-13 -16 -12 -17 4 -4 9 7 17 15 17 17 0 8 -8 3 -21 -13z"/>
<path d="M4324 8602 c23 -26 23 -26 23 -7 0 8 -3 13 -5 10 -3 -3 -12 1 -21 7
-10 8 -9 4 3 -10z"/>
<path d="M3672 8605 c3 -3 16 -8 28 -10 12 -2 20 -1 16 2 -4 4 -16 8 -28 10
-12 2 -19 1 -16 -2z"/>
<path d="M3976 8593 c-6 -14 -5 -15 5 -6 7 7 10 15 7 18 -3 3 -9 -2 -12 -12z"/>
<path d="M4035 8601 c-3 -5 -2 -12 3 -15 5 -3 9 1 9 9 0 17 -3 19 -12 6z"/>
<path d="M4116 8602 c-3 -5 1 -9 9 -9 8 0 12 4 9 9 -3 4 -7 8 -9 8 -2 0 -6 -4
-9 -8z"/>
<path d="M4179 8593 c-13 -16 -12 -17 4 -4 16 13 21 21 13 21 -2 0 -10 -8 -17
-17z"/>
<path d="M4413 8595 c4 -8 2 -17 -3 -20 -6 -4 -10 0 -10 7 0 9 -3 9 -8 2 -9
-13 -75 -13 -84 1 -5 7 -8 6 -8 -1 0 -7 -22 -12 -60 -12 -34 0 -64 -2 -67 -6
-3 -3 -12 -1 -20 5 -7 6 -13 7 -13 2 0 -5 -25 -9 -55 -8 -30 0 -55 -4 -55 -10
0 -5 -5 -3 -10 5 -5 8 -10 10 -10 5 0 -6 -16 -12 -36 -13 -26 -2 -34 1 -29 10
4 7 1 6 -7 -2 -12 -14 -54 -21 -130 -24 -16 -1 -28 -4 -28 -8 0 -8 -21 -5 -39
6 -9 6 -12 5 -8 -1 4 -6 0 -13 -8 -17 -8 -3 -15 0 -15 7 0 7 -3 8 -8 2 -4 -5
-14 -11 -22 -13 -36 -8 -124 -24 -141 -25 -10 -1 -19 -4 -19 -7 0 -3 -8 -6
-17 -6 -10 0 -29 -4 -43 -9 -23 -7 -24 -7 -10 11 8 11 3 9 -13 -5 -19 -17 -27
-20 -27 -10 0 10 -3 10 -8 2 -4 -6 -34 -18 -67 -27 -33 -10 -82 -23 -110 -31
-27 -7 -53 -11 -57 -9 -5 3 -8 0 -8 -5 0 -6 -9 -11 -21 -11 -13 0 -18 4 -13
13 4 7 3 9 -2 4 -5 -5 -9 -14 -9 -20 0 -7 -14 -12 -32 -11 -18 0 -30 -3 -27
-8 5 -8 0 -10 -28 -12 -7 -1 -16 -5 -19 -9 -3 -4 -16 -9 -27 -10 -12 -1 -22
-5 -22 -9 0 -4 -7 -8 -16 -8 -8 0 -36 -9 -61 -21 -25 -11 -55 -22 -67 -25 -11
-2 -22 -8 -24 -14 -2 -5 -8 -10 -14 -10 -6 0 -7 8 -4 18 3 9 -3 5 -15 -11 -11
-15 -25 -25 -29 -22 -5 3 -11 1 -15 -5 -3 -5 -15 -10 -26 -10 -10 0 -19 -4
-19 -8 0 -8 -61 -33 -71 -29 -3 1 -13 -6 -23 -16 -10 -9 -22 -15 -27 -12 -5 4
-9 2 -9 -4 0 -5 -20 -17 -45 -27 -25 -9 -45 -21 -45 -26 0 -6 -7 -7 -16 -4 -8
3 -12 2 -9 -4 8 -13 -1 -13 -28 2 -20 10 -21 10 -8 -5 11 -15 10 -18 -14 -27
-15 -6 -40 -19 -55 -30 -14 -10 -32 -20 -40 -22 -7 -2 -22 -11 -32 -21 -11
-10 -26 -16 -34 -13 -8 3 -13 2 -10 -3 8 -13 -123 -93 -137 -84 -18 11 -38 12
-31 2 3 -5 9 -7 14 -4 5 3 11 1 14 -4 11 -16 -14 -23 -32 -9 -15 12 -16 11 -4
-4 12 -14 10 -19 -13 -34 -15 -10 -42 -18 -61 -19 -19 -1 -38 -5 -41 -9 -4 -4
5 -5 20 -2 15 2 27 1 27 -3 0 -10 -112 -87 -122 -83 -4 1 -8 -4 -8 -10 -1 -15
-130 -114 -143 -110 -5 1 -6 -1 -3 -6 4 -7 -27 -42 -37 -42 -7 0 -134 -119
-215 -202 -47 -48 -89 -85 -94 -82 -5 3 -8 2 -7 -3 4 -15 -13 -43 -22 -37 -5
3 -9 1 -9 -4 0 -14 -70 -87 -81 -84 -5 1 -8 -1 -8 -5 4 -23 -3 -35 -15 -30 -9
4 -13 1 -11 -6 3 -7 -13 -31 -35 -55 -22 -24 -40 -46 -40 -50 0 -3 -12 -17
-27 -29 -14 -13 -23 -23 -19 -23 4 0 -6 -17 -21 -37 -32 -44 -70 -85 -58 -64
5 9 4 12 -3 7 -6 -4 -9 -13 -6 -21 4 -8 -1 -18 -10 -21 -9 -3 -16 -10 -16 -15
0 -19 -53 -88 -63 -82 -6 4 -7 1 -2 -7 5 -8 1 -18 -10 -27 -11 -7 -15 -13 -11
-13 5 0 3 -7 -4 -15 -7 -8 -17 -12 -23 -8 -6 3 -7 1 -3 -5 7 -12 -142 -272
-155 -272 -5 0 -6 -7 -3 -15 4 -8 1 -15 -7 -15 -7 0 -9 -3 -6 -7 10 -10 -14
-34 -27 -26 -8 5 -8 3 -1 -8 8 -10 5 -25 -11 -56 -12 -23 -24 -40 -27 -37 -2
3 -8 -7 -11 -22 -4 -15 -20 -56 -37 -90 -16 -35 -29 -68 -29 -74 0 -5 -4 -10
-10 -10 -5 0 -10 -7 -10 -15 0 -17 -32 -89 -42 -93 -4 -2 -4 -10 -1 -18 3 -8
0 -14 -6 -14 -6 0 -10 -6 -8 -12 1 -7 -5 -12 -13 -10 -11 3 -12 0 -4 -8 8 -8
6 -26 -9 -65 -11 -30 -23 -53 -27 -50 -4 2 -5 -7 -2 -22 4 -19 1 -24 -9 -21
-8 3 -13 13 -12 23 1 12 -2 14 -10 6 -7 -7 -6 -16 7 -30 20 -22 12 -45 -13
-37 -12 5 -11 2 3 -9 11 -8 15 -15 10 -15 -5 0 -11 -8 -12 -17 -5 -46 -23
-103 -33 -103 -5 0 -6 -6 -4 -12 5 -15 -28 -141 -35 -134 -3 2 -6 -14 -7 -37
-1 -23 -7 -43 -12 -45 -7 -2 -8 -14 -5 -29 5 -16 3 -24 -3 -20 -6 4 -8 -3 -5
-18 2 -14 0 -31 -6 -38 -5 -6 -8 -20 -7 -29 2 -10 -1 -18 -6 -18 -4 0 -6 -7
-3 -15 4 -8 3 -23 -1 -32 -5 -10 -7 -28 -6 -40 1 -13 -3 -23 -9 -23 -6 0 -8 5
-4 12 4 7 3 8 -5 4 -8 -5 -9 -12 -2 -20 13 -15 7 -61 -10 -83 -9 -11 -10 -14
-1 -9 12 7 12 3 -2 -79 -1 -5 -6 -16 -10 -24 -5 -8 -5 -12 0 -8 5 3 5 -29 0
-78 -6 -46 -13 -82 -16 -80 -4 2 -7 -2 -7 -10 0 -8 4 -12 8 -9 4 2 6 -15 4
-38 -3 -24 -5 -62 -6 -84 -2 -39 -4 -41 -31 -39 -15 1 -30 -1 -33 -4 -2 -4 10
-7 28 -7 31 1 31 1 32 -52 0 -28 -4 -52 -10 -52 -5 0 -4 -5 2 -11 9 -9 7 -16
-5 -28 -10 -9 -13 -13 -8 -8 6 4 12 7 15 7 9 0 6 -108 -2 -116 -4 -4 -7 -12
-7 -18 0 -7 3 -7 8 1 4 6 7 -18 7 -55 0 -37 5 -70 10 -74 6 -5 5 -8 -2 -8 -9
0 -10 -7 -3 -26 14 -35 13 -35 -15 -30 -13 3 -27 1 -30 -4 -3 -5 3 -7 13 -5
10 2 25 -1 32 -5 11 -7 10 -12 -6 -27 -11 -10 -15 -15 -10 -11 6 5 13 8 17 8
7 0 21 -103 23 -167 0 -24 3 -43 7 -43 8 0 5 -33 -6 -49 -5 -10 -4 -12 3 -7 7
4 12 5 12 3 0 -2 4 -28 10 -58 5 -30 11 -70 14 -89 7 -43 14 -76 20 -98 3 -9
7 -30 10 -46 3 -16 8 -31 10 -34 3 -3 0 -12 -7 -20 -9 -13 -9 -14 0 -8 12 7
18 -12 14 -38 -1 -4 4 -14 10 -22 9 -11 8 -18 -1 -29 -7 -9 -10 -18 -6 -22 3
-3 6 -1 6 5 0 7 5 12 11 12 5 0 8 -4 4 -9 -3 -5 -1 -20 4 -33 25 -62 52 -169
45 -179 -4 -7 -3 -9 3 -6 12 8 48 -106 39 -122 -4 -6 -3 -10 2 -9 6 2 11 -1
12 -7 1 -5 11 -27 21 -48 11 -20 17 -37 14 -37 -3 0 -1 -10 6 -21 6 -12 7 -19
2 -16 -5 4 -10 0 -10 -7 0 -8 7 -12 15 -8 10 3 13 1 8 -6 -4 -7 -4 -12 1 -12
8 0 32 -60 36 -90 1 -8 9 -20 17 -26 12 -10 12 -14 0 -30 -11 -13 -12 -16 -1
-10 18 11 33 -14 19 -31 -8 -10 -7 -12 3 -8 8 3 19 -6 27 -22 19 -39 26 -60
15 -48 -4 6 -17 17 -28 25 -19 14 -20 14 -2 -6 9 -11 14 -24 10 -29 -5 -4 -3
-5 4 -1 6 3 21 -4 32 -16 25 -26 27 -43 5 -34 -8 3 -12 2 -9 -4 3 -6 12 -10
20 -10 12 0 32 -38 26 -49 -2 -2 2 -7 7 -10 16 -10 62 -98 55 -105 -4 -3 -1
-6 5 -6 7 0 12 -6 12 -14 0 -8 3 -16 8 -18 4 -1 18 -23 31 -48 14 -25 28 -48
33 -51 5 -3 10 -15 11 -27 0 -11 4 -19 8 -16 4 2 20 -17 35 -43 15 -27 38 -62
51 -79 12 -17 23 -36 23 -42 0 -6 3 -12 8 -14 15 -6 52 -61 46 -69 -3 -5 2 -9
10 -9 9 0 16 -4 16 -8 0 -5 11 -22 25 -38 26 -30 33 -50 13 -38 -7 4 -8 3 -4
-5 4 -6 11 -9 15 -7 11 7 53 -43 46 -55 -4 -5 -3 -8 2 -7 4 2 10 -1 12 -7 2
-5 12 -16 23 -23 10 -7 16 -18 12 -23 -3 -5 0 -8 8 -7 7 2 12 -2 11 -9 -2 -6
7 -15 18 -18 16 -5 20 -13 16 -31 -3 -18 -1 -22 8 -14 15 12 25 3 18 -16 -3
-9 0 -14 8 -12 8 2 13 -3 11 -10 -1 -6 1 -11 5 -10 12 4 63 -44 63 -59 0 -7 3
-12 8 -11 6 2 87 -77 130 -129 11 -13 22 -20 26 -16 3 3 6 -2 6 -12 0 -10 3
-16 6 -13 3 3 28 -16 55 -43 27 -26 58 -53 69 -59 12 -7 17 -16 13 -27 -4 -10
-2 -14 4 -10 5 3 21 -2 34 -13 13 -10 41 -32 61 -48 21 -16 35 -32 31 -36 -3
-3 -1 -6 6 -6 19 0 81 -51 81 -66 0 -7 4 -16 10 -19 6 -4 7 1 4 12 -4 14 -1
12 15 -6 12 -12 19 -26 16 -30 -2 -4 2 -8 10 -8 12 0 12 3 2 15 -6 9 26 -13
73 -47 47 -34 84 -67 83 -71 -2 -5 4 -7 12 -4 17 7 49 -21 40 -36 -3 -5 0 -7
9 -4 20 8 58 -14 50 -29 -4 -7 -4 -9 1 -5 4 4 14 0 22 -10 8 -9 12 -11 8 -5
-10 20 13 15 35 -7 11 -11 20 -17 20 -12 0 4 7 -2 15 -12 8 -11 15 -17 15 -13
0 4 9 3 20 -3 11 -6 18 -15 15 -20 -4 -6 1 -7 11 -3 13 5 15 3 9 -7 -5 -8 -4
-11 3 -7 15 10 43 -3 35 -16 -3 -6 -1 -7 6 -3 6 4 25 -2 41 -14 17 -12 30 -18
30 -14 0 4 8 0 18 -8 9 -8 32 -20 49 -28 18 -7 31 -15 29 -19 -3 -4 7 -8 21
-9 29 -2 45 -11 39 -21 -3 -4 7 -8 22 -9 15 -1 29 -7 30 -12 2 -6 10 -10 18
-10 7 0 29 -9 49 -20 19 -11 35 -17 35 -14 0 2 10 -1 23 -8 12 -7 25 -11 30
-10 4 1 7 -2 7 -8 0 -6 3 -9 8 -8 6 2 120 -38 177 -62 60 -25 380 -119 456
-134 13 -2 69 -13 124 -25 155 -32 312 -53 495 -68 174 -15 685 -7 786 11 10
2 46 7 79 10 85 10 122 16 188 27 32 6 70 12 85 14 15 2 36 6 47 9 11 2 54 12
95 21 515 109 1062 345 1515 652 151 103 335 243 335 255 0 5 5 8 10 8 6 0 18
8 28 17 10 10 47 43 82 73 80 69 257 244 334 330 32 36 70 79 85 95 15 17 54
64 87 105 32 41 63 79 67 85 89 112 233 332 282 430 22 44 43 82 48 83 4 2 5
8 1 13 -3 5 0 9 5 9 6 0 10 3 10 8 -4 21 2 32 13 26 8 -5 9 -2 5 10 -8 20 15
60 28 48 4 -4 5 1 2 11 -4 9 -2 17 3 17 6 0 10 3 9 8 -2 15 14 52 22 52 5 0 8
3 7 8 -5 14 37 102 49 102 6 0 15 4 18 10 3 5 0 7 -9 4 -13 -5 -13 -2 -3 20 7
14 16 26 20 26 5 0 6 4 3 9 -7 10 32 103 47 113 6 3 12 21 14 40 2 18 8 35 13
36 6 2 10 12 10 23 0 10 5 19 11 19 5 0 8 4 5 9 -9 14 5 42 17 34 6 -4 7 -1 3
6 -5 7 0 22 11 34 16 19 16 20 0 8 -15 -12 -17 -12 -11 3 3 9 10 16 14 16 5 0
6 8 3 19 -2 10 2 24 10 32 7 8 12 20 9 27 -2 6 1 12 8 12 6 0 8 5 5 10 -4 6
-1 17 5 25 7 8 9 15 5 15 -4 0 0 12 10 26 9 15 11 23 4 19 -9 -6 -10 -4 -3 6
9 14 10 19 13 40 0 5 6 7 13 3 7 -4 8 -3 4 5 -11 17 14 124 33 139 9 7 10 11
4 7 -8 -4 -13 0 -13 10 0 9 4 14 9 11 4 -3 6 6 3 21 -3 17 -1 24 6 19 6 -3 14
-1 18 5 4 8 3 9 -4 5 -8 -5 -11 1 -10 18 1 15 5 26 8 26 3 0 6 15 7 33 2 45 8
81 16 94 4 6 4 18 1 27 -4 11 0 16 12 16 12 0 15 3 8 8 -17 10 -11 78 6 74 10
-2 11 0 2 11 -7 8 -9 17 -6 20 4 4 7 34 7 67 0 33 3 60 7 60 4 0 6 21 5 47 -2
34 2 51 14 61 9 7 10 11 3 7 -17 -9 -17 106 1 124 6 8 7 11 2 8 -15 -8 -15 46
-1 55 7 5 6 8 -3 8 -11 0 -11 3 0 17 8 10 9 14 2 10 -15 -9 -9 29 8 49 9 12 9
13 -3 9 -9 -4 -15 0 -15 9 0 8 5 12 11 9 6 -3 6 0 -1 7 -8 8 -9 20 -2 37 6 16
5 22 -1 18 -14 -9 -12 8 3 24 10 11 10 13 -1 7 -8 -5 -12 3 -12 29 0 26 3 34
13 29 6 -4 9 -4 5 1 -4 4 -2 15 5 24 11 14 10 14 -5 2 -16 -12 -18 -11 -19 5
-1 62 -14 204 -23 259 -2 11 2 23 8 27 7 5 7 8 -3 8 -11 0 -11 3 0 17 12 14
12 16 0 8 -11 -6 -13 -4 -8 8 4 10 2 17 -5 17 -7 0 -6 5 2 15 7 8 16 13 19 10
4 -2 8 2 8 10 0 13 -4 12 -19 -2 -17 -15 -18 -14 -19 18 -2 38 -5 60 -14 104
-4 17 -8 41 -9 55 -1 14 -5 30 -9 36 -3 6 -8 32 -10 56 -2 25 -7 50 -10 55 -3
5 -9 25 -12 43 -5 27 -3 31 8 22 10 -9 14 -8 14 3 0 7 -3 14 -6 13 -26 -3 -33
3 -21 17 7 8 17 12 23 8 6 -3 7 -1 3 6 -6 9 -11 9 -21 1 -9 -8 -14 -3 -19 21
-3 17 -3 36 1 42 3 5 1 7 -4 4 -14 -9 -24 54 -10 71 7 9 6 11 -7 6 -11 -4 -16
-1 -16 10 0 26 -1 30 -11 42 -4 6 -9 25 -11 42 -1 18 -5 32 -8 32 -7 0 -33 90
-30 104 1 5 -3 12 -10 16 -6 4 -12 23 -13 42 -1 20 -5 34 -8 33 -9 -6 -31 64
-24 75 4 6 1 9 -5 8 -6 -2 -21 26 -34 62 -13 36 -31 78 -39 94 -9 16 -14 33
-11 38 3 4 1 8 -4 8 -8 0 -21 29 -22 48 0 1 -16 31 -35 67 -20 36 -33 70 -30
75 3 6 2 10 -4 10 -6 0 -23 26 -38 58 -15 31 -32 60 -36 63 -12 9 -11 20 5 31
9 6 8 8 -7 6 -15 -2 -20 3 -19 18 0 12 -4 20 -10 18 -14 -5 -48 64 -40 78 4 6
3 8 -3 5 -10 -6 -76 88 -76 110 0 6 -4 10 -9 7 -4 -3 -8 0 -8 5 0 20 -3 26
-18 37 -8 6 -12 16 -8 23 4 6 2 10 -4 9 -7 -2 -17 6 -23 16 -7 11 -20 29 -30
40 -16 19 -21 31 -18 49 0 4 -6 7 -15 7 -8 0 -12 5 -9 10 3 6 2 10 -3 10 -5 0
-24 21 -43 48 -18 26 -41 56 -51 66 -9 10 -15 24 -11 29 3 6 1 7 -4 4 -6 -4
-18 4 -27 17 -8 13 -27 36 -40 51 -14 15 -23 32 -19 38 3 5 2 7 -4 4 -5 -3
-17 3 -26 14 -9 10 -15 19 -13 19 2 0 -16 21 -40 46 -24 25 -42 50 -38 55 3 5
2 8 -3 7 -16 -5 -75 51 -67 63 4 7 3 9 -3 6 -14 -9 -37 19 -28 32 3 6 0 8 -8
5 -8 -3 -31 14 -55 40 -22 24 -43 41 -46 38 -6 -5 -10 14 -7 31 1 5 -3 6 -8 3
-5 -3 -27 11 -50 31 -68 65 -101 93 -107 93 -9 0 -59 54 -57 62 2 4 -3 5 -10
3 -6 -3 -31 13 -55 35 -23 22 -46 40 -50 40 -5 0 -17 8 -28 18 -10 9 -36 28
-56 42 -21 14 -38 29 -38 33 0 5 -4 5 -10 2 -6 -3 -10 -1 -10 4 0 6 -7 11 -15
11 -7 0 -18 7 -23 16 -5 9 -13 16 -18 16 -14 1 -44 24 -38 30 3 3 -3 5 -13 5
-11 -1 -17 4 -15 13 2 8 0 12 -4 8 -13 -14 -99 43 -86 57 4 5 2 5 -5 1 -13 -7
-66 16 -97 43 -10 9 -21 16 -25 16 -3 0 -5 3 -4 6 1 4 -3 6 -10 5 -21 -2 -97
39 -93 50 3 7 -3 10 -16 6 -11 -2 -23 -1 -27 5 -3 5 -24 17 -46 25 -22 9 -39
22 -37 28 1 6 -2 9 -8 5 -17 -10 -71 18 -65 34 4 10 2 11 -7 4 -16 -13 -62 2
-53 16 3 6 -4 8 -15 6 -11 -2 -26 2 -34 10 -7 8 -16 12 -19 9 -3 -3 -13 -1
-24 4 -10 5 -31 15 -48 22 -16 7 -38 17 -49 22 -10 5 -30 12 -44 14 -14 3 -32
13 -40 22 -7 9 -11 11 -7 5 3 -7 1 -13 -4 -13 -6 0 -11 4 -11 8 0 4 -10 9 -22
9 -13 1 -24 7 -26 12 -2 5 -10 7 -18 4 -8 -3 -14 0 -14 6 0 6 -7 8 -15 5 -8
-4 -15 -1 -15 5 0 6 -7 8 -17 4 -11 -4 -14 -3 -9 5 4 7 2 10 -6 7 -8 -3 -40 4
-73 16 -33 11 -68 20 -77 20 -10 0 -18 3 -18 7 0 4 -15 8 -32 9 -18 2 -34 7
-36 13 -2 6 -8 8 -13 5 -5 -4 -35 1 -66 9 -32 8 -71 18 -86 21 -17 3 -25 10
-21 17 5 7 2 8 -11 1 -17 -10 -65 -6 -65 6 0 3 -17 7 -38 8 -39 3 -97 11 -97
13 0 3 -42 9 -77 12 -21 1 -38 4 -38 7 0 4 -17 6 -38 7 -100 3 -207 16 -214
27 -6 9 -8 8 -8 -2 0 -11 -3 -11 -15 -1 -12 10 -15 10 -15 -1 0 -11 -2 -11
-10 1 -7 11 -10 11 -10 2 0 -7 -4 -11 -8 -8 -5 3 -37 6 -73 7 -40 2 -71 9 -84
18 -18 15 -19 15 -6 -1 12 -16 10 -17 -18 -13 -17 2 -35 6 -41 10 -5 3 -10 2
-10 -4 0 -5 -9 -9 -20 -8 -18 1 -24 10 -21 30 0 4 -4 7 -10 7 -6 0 -9 -7 -6
-15z"/>
<path d="M4670 8596 c7 -7 13 -7 20 0 6 6 3 10 -10 10 -13 0 -16 -4 -10 -10z"/>
<path d="M5395 8601 c-3 -5 -2 -12 3 -15 5 -3 9 1 9 9 0 17 -3 19 -12 6z"/>
<path d="M3135 8581 c-3 -5 -2 -12 3 -15 5 -3 9 1 9 9 0 17 -3 19 -12 6z"/>
<path d="M3250 8580 c0 -5 5 -10 11 -10 5 0 7 5 4 10 -3 6 -8 10 -11 10 -2 0
-4 -4 -4 -10z"/>
<path d="M4786 8578 c3 -4 9 -8 15 -8 5 0 9 4 9 8 0 5 -7 9 -15 9 -8 0 -12 -4
-9 -9z"/>
<path d="M4950 8580 c0 -5 5 -10 11 -10 5 0 7 5 4 10 -3 6 -8 10 -11 10 -2 0
-4 -4 -4 -10z"/>
<path d="M5455 8580 c-3 -5 -1 -10 4 -10 6 0 11 5 11 10 0 6 -2 10 -4 10 -3 0
-8 -4 -11 -10z"/>
<path d="M5490 8579 c0 -5 5 -7 10 -4 6 3 10 8 10 11 0 2 -4 4 -10 4 -5 0 -10
-5 -10 -11z"/>
<path d="M5640 8580 c-12 -7 -10 -9 7 -7 12 0 19 5 17 9 -6 10 -6 10 -24 -2z"/>
<path d="M3614 8566 c1 -8 5 -18 8 -22 4 -3 5 1 4 10 -1 8 -5 18 -8 22 -4 3
-5 -1 -4 -10z"/>
<path d="M3849 8563 c-13 -16 -12 -17 4 -4 16 13 21 21 13 21 -2 0 -10 -8 -17
-17z"/>
<path d="M3347 8559 c7 -7 15 -10 18 -7 3 3 -2 9 -12 12 -14 6 -15 5 -6 -5z"/>
<path d="M3386 8558 c3 -5 10 -6 15 -3 13 9 11 12 -6 12 -8 0 -12 -4 -9 -9z"/>
<path d="M3456 8562 c-3 -5 1 -9 9 -9 8 0 12 4 9 9 -3 4 -7 8 -9 8 -2 0 -6 -4
-9 -8z"/>
<path d="M3766 8562 c-3 -5 1 -9 9 -9 8 0 12 4 9 9 -3 4 -7 8 -9 8 -2 0 -6 -4
-9 -8z"/>
<path d="M3896 8558 c3 -5 10 -6 15 -3 13 9 11 12 -6 12 -8 0 -12 -4 -9 -9z"/>
<path d="M5190 8566 c0 -2 7 -7 16 -10 8 -3 12 -2 9 4 -6 10 -25 14 -25 6z"/>
<path d="M5356 8562 c-3 -5 1 -9 9 -9 8 0 12 4 9 9 -3 4 -7 8 -9 8 -2 0 -6 -4
-9 -8z"/>
<path d="M5396 8558 c3 -5 10 -6 15 -3 13 9 11 12 -6 12 -8 0 -12 -4 -9 -9z"/>
<path d="M2974 8542 c4 -3 14 -7 22 -8 9 -1 13 0 10 4 -4 3 -14 7 -22 8 -9 1
-13 0 -10 -4z"/>
<path d="M3535 8529 c-4 -6 -5 -12 -2 -15 2 -3 7 2 10 11 7 17 1 20 -8 4z"/>
<path d="M5313 8527 c0 -8 6 -14 14 -14 9 0 10 4 2 14 -6 7 -12 13 -14 13 -1
0 -2 -6 -2 -13z"/>
<path d="M3290 8521 c0 -6 4 -13 10 -16 6 -3 7 1 4 9 -7 18 -14 21 -14 7z"/>
<path d="M3350 8526 c0 -2 7 -7 16 -10 8 -3 12 -2 9 4 -6 10 -25 14 -25 6z"/>
<path d="M3555 8521 c-3 -5 -2 -12 3 -15 5 -3 9 1 9 9 0 17 -3 19 -12 6z"/>
<path d="M3596 8518 c3 -5 10 -6 15 -3 13 9 11 12 -6 12 -8 0 -12 -4 -9 -9z"/>
<path d="M5426 8521 c-3 -4 6 -7 19 -7 14 0 22 2 19 5 -8 8 -34 10 -38 2z"/>
<path d="M2850 8499 c0 -5 5 -7 10 -4 6 3 10 8 10 11 0 2 -4 4 -10 4 -5 0 -10
-5 -10 -11z"/>
<path d="M2976 8502 c-3 -4 4 -9 15 -9 23 -2 25 3 4 10 -8 4 -16 3 -19 -1z"/>
<path d="M3173 8490 c-1 -11 2 -22 6 -24 4 -3 7 4 6 14 -2 27 -10 33 -12 10z"/>
<path d="M5770 8500 c0 -5 5 -10 11 -10 5 0 7 5 4 10 -3 6 -8 10 -11 10 -2 0
-4 -4 -4 -10z"/>
<path d="M5810 8499 c0 -5 5 -7 10 -4 6 3 10 8 10 11 0 2 -4 4 -10 4 -5 0 -10
-5 -10 -11z"/>
<path d="M5855 8500 c-3 -5 -1 -10 4 -10 6 0 11 5 11 10 0 6 -2 10 -4 10 -3 0
-8 -4 -11 -10z"/>
<path d="M5549 8483 c-13 -16 -12 -17 4 -4 9 7 17 15 17 17 0 8 -8 3 -21 -13z"/>
<path d="M5516 8473 c-6 -14 -5 -15 5 -6 7 7 10 15 7 18 -3 3 -9 -2 -12 -12z"/>
<path d="M5700 8486 c0 -2 8 -10 18 -17 15 -13 16 -12 3 4 -13 16 -21 21 -21
13z"/>
<path d="M5975 8471 c-3 -5 -2 -12 3 -15 5 -3 9 1 9 9 0 17 -3 19 -12 6z"/>
<path d="M2813 8449 c-2 -23 3 -25 10 -4 4 8 3 16 -1 19 -4 3 -9 -4 -9 -15z"/>
<path d="M2855 8460 c-3 -5 -1 -10 4 -10 6 0 11 5 11 10 0 6 -2 10 -4 10 -3 0
-8 -4 -11 -10z"/>
<path d="M3230 8459 c0 -5 5 -7 10 -4 6 3 10 8 10 11 0 2 -4 4 -10 4 -5 0 -10
-5 -10 -11z"/>
<path d="M3266 8462 c-3 -5 1 -9 9 -9 8 0 15 4 15 9 0 4 -4 8 -9 8 -6 0 -12
-4 -15 -8z"/>
<path d="M5773 8449 c-2 -23 3 -25 10 -4 4 8 3 16 -1 19 -4 3 -9 -4 -9 -15z"/>
<path d="M5936 8462 c-3 -5 1 -9 9 -9 8 0 12 4 9 9 -3 4 -7 8 -9 8 -2 0 -6 -4
-9 -8z"/>
<path d="M5806 8442 c-3 -5 1 -9 9 -9 8 0 12 4 9 9 -3 4 -7 8 -9 8 -2 0 -6 -4
-9 -8z"/>
<path d="M6133 8425 c0 -8 4 -12 9 -9 5 3 6 10 3 15 -9 13 -12 11 -12 -6z"/>
<path d="M3105 8420 c-3 -6 1 -7 9 -4 18 7 21 14 7 14 -6 0 -13 -4 -16 -10z"/>
<path d="M5846 8422 c-3 -5 1 -9 9 -9 8 0 12 4 9 9 -3 4 -7 8 -9 8 -2 0 -6 -4
-9 -8z"/>
<path d="M5736 8407 c3 -10 9 -15 12 -12 3 3 0 11 -7 18 -10 9 -11 8 -5 -6z"/>
<path d="M2630 8400 c0 -5 5 -10 11 -10 5 0 7 5 4 10 -3 6 -8 10 -11 10 -2 0
-4 -4 -4 -10z"/>
<path d="M2670 8399 c0 -5 5 -7 10 -4 6 3 10 8 10 11 0 2 -4 4 -10 4 -5 0 -10
-5 -10 -11z"/>
<path d="M2906 8402 c-3 -5 1 -9 9 -9 8 0 12 4 9 9 -3 4 -7 8 -9 8 -2 0 -6 -4
-9 -8z"/>
<path d="M6030 8401 c0 -6 4 -12 8 -15 5 -3 9 1 9 9 0 8 -4 15 -9 15 -4 0 -8
-4 -8 -9z"/>
<path d="M6194 8382 c4 -3 14 -7 22 -8 9 -1 13 0 10 4 -4 3 -14 7 -22 8 -9 1
-13 0 -10 -4z"/>
<path d="M2714 8369 c-3 -6 -2 -15 3 -20 5 -5 9 -1 9 11 0 23 -2 24 -12 9z"/>
<path d="M2587 8359 c7 -7 15 -10 18 -7 3 3 -2 9 -12 12 -14 6 -15 5 -6 -5z"/>
<path d="M2630 8361 c0 -6 4 -13 10 -16 6 -3 7 1 4 9 -7 18 -14 21 -14 7z"/>
<path d="M2675 8360 c-3 -5 -1 -10 4 -10 6 0 11 5 11 10 0 6 -2 10 -4 10 -3 0
-8 -4 -11 -10z"/>
<path d="M2536 8338 c3 -4 11 -5 19 -1 21 7 19 12 -4 10 -11 0 -18 -5 -15 -9z"/>
<path d="M5960 8340 c-9 -6 -10 -10 -3 -10 6 0 15 5 18 10 8 12 4 12 -15 0z"/>
<path d="M6255 8340 c-3 -5 -1 -10 4 -10 6 0 11 5 11 10 0 6 -2 10 -4 10 -3 0
-8 -4 -11 -10z"/>
<path d="M2706 8322 c-3 -5 1 -9 9 -9 8 0 12 4 9 9 -3 4 -7 8 -9 8 -2 0 -6 -4
-9 -8z"/>
<path d="M6313 8315 c0 -8 4 -12 9 -9 5 3 6 10 3 15 -9 13 -12 11 -12 -6z"/>
<path d="M2839 8318 c-5 -18 -6 -38 -1 -34 7 8 12 36 6 36 -2 0 -4 -1 -5 -2z"/>
<path d="M6033 8305 c0 -8 4 -12 9 -9 5 3 6 10 3 15 -9 13 -12 11 -12 -6z"/>
<path d="M2435 8299 c-3 -4 2 -6 10 -5 21 3 28 13 10 13 -9 0 -18 -4 -20 -8z"/>
<path d="M2495 8300 c-3 -5 -1 -10 4 -10 6 0 11 5 11 10 0 6 -2 10 -4 10 -3 0
-8 -4 -11 -10z"/>
<path d="M2535 8300 c3 -5 8 -10 11 -10 2 0 4 5 4 10 0 6 -5 10 -11 10 -5 0
-7 -4 -4 -10z"/>
<path d="M2630 8296 c0 -2 8 -10 18 -17 15 -13 16 -12 3 4 -13 16 -21 21 -21
13z"/>
<path d="M6233 8285 c0 -8 4 -15 9 -15 4 0 8 4 8 9 0 6 -4 12 -8 15 -5 3 -9
-1 -9 -9z"/>
<path d="M6270 8280 c0 -5 5 -10 11 -10 5 0 7 5 4 10 -3 6 -8 10 -11 10 -2 0
-4 -4 -4 -10z"/>
<path d="M6316 8273 c-6 -14 -5 -15 5 -6 7 7 10 15 7 18 -3 3 -9 -2 -12 -12z"/>
<path d="M6360 8280 c-9 -6 -10 -10 -3 -10 6 0 15 5 18 10 8 12 4 12 -15 0z"/>
<path d="M6453 8265 c0 -8 4 -12 9 -9 5 3 6 10 3 15 -9 13 -12 11 -12 -6z"/>
<path d="M2415 8260 c-3 -5 -1 -10 4 -10 6 0 11 5 11 10 0 6 -2 10 -4 10 -3 0
-8 -4 -11 -10z"/>
<path d="M2450 8259 c0 -5 5 -7 10 -4 6 3 10 8 10 11 0 2 -4 4 -10 4 -5 0 -10
-5 -10 -11z"/>
<path d="M2495 8260 c-3 -5 -1 -10 4 -10 6 0 11 5 11 10 0 6 -2 10 -4 10 -3 0
-8 -4 -11 -10z"/>
<path d="M2554 8240 c0 -13 4 -16 10 -10 7 7 7 13 0 20 -6 6 -10 3 -10 -10z"/>
<path d="M2350 8241 c0 -6 4 -13 10 -16 6 -3 7 1 4 9 -7 18 -14 21 -14 7z"/>
<path d="M2673 8236 c-3 -6 -3 -8 2 -4 4 4 13 3 20 -2 8 -7 12 -5 12 3 0 16
-25 18 -34 3z"/>
<path d="M2246 8222 c-3 -5 1 -9 9 -9 8 0 12 4 9 9 -3 4 -7 8 -9 8 -2 0 -6 -4
-9 -8z"/>
<path d="M6515 8219 c-3 -4 2 -6 10 -5 21 3 28 13 10 13 -9 0 -18 -4 -20 -8z"/>
<path d="M6470 8216 c0 -2 8 -10 18 -17 15 -13 16 -12 3 4 -13 16 -21 21 -21
13z"/>
<path d="M2490 8200 c0 -5 5 -10 11 -10 5 0 7 5 4 10 -3 6 -8 10 -11 10 -2 0
-4 -4 -4 -10z"/>
<path d="M2551 8207 c2 -2 11 -8 20 -15 12 -9 16 -9 16 1 0 7 -9 14 -20 14
-11 1 -18 1 -16 0z"/>
<path d="M2215 8180 c3 -5 8 -10 11 -10 2 0 4 5 4 10 0 6 -5 10 -11 10 -5 0
-7 -4 -4 -10z"/>
<path d="M2433 8165 c0 -8 4 -12 9 -9 5 3 6 10 3 15 -9 13 -12 11 -12 -6z"/>
<path d="M2353 8155 c0 -8 4 -12 9 -9 4 3 8 9 8 15 0 5 -4 9 -8 9 -5 0 -9 -7
-9 -15z"/>
<path d="M2385 8159 c-3 -4 2 -6 10 -5 21 3 28 13 10 13 -9 0 -18 -4 -20 -8z"/>
<path d="M2475 8141 c-3 -5 -2 -12 3 -15 5 -3 9 1 9 9 0 17 -3 19 -12 6z"/>
<path d="M6530 8139 c0 -5 5 -7 10 -4 6 3 10 8 10 11 0 2 -4 4 -10 4 -5 0 -10
-5 -10 -11z"/>
<path d="M6570 8140 c0 -5 5 -10 11 -10 5 0 7 5 4 10 -3 6 -8 10 -11 10 -2 0
-4 -4 -4 -10z"/>
<path d="M6616 8138 c3 -4 11 -5 19 -1 21 7 19 12 -4 10 -11 0 -18 -5 -15 -9z"/>
<path d="M6430 8136 c0 -2 8 -10 18 -17 15 -13 16 -12 3 4 -13 16 -21 21 -21
13z"/>
<path d="M2193 8115 c0 -8 4 -12 9 -9 5 3 6 10 3 15 -9 13 -12 11 -12 -6z"/>
<path d="M2376 8113 c-6 -14 -5 -15 5 -6 7 7 10 15 7 18 -3 3 -9 -2 -12 -12z"/>
<path d="M2400 8125 c0 -2 6 -8 13 -14 10 -8 14 -7 14 2 0 8 -6 14 -14 14 -7
0 -13 -1 -13 -2z"/>
<path d="M2090 8099 c0 -5 5 -7 10 -4 6 3 10 8 10 11 0 2 -4 4 -10 4 -5 0 -10
-5 -10 -11z"/>
<path d="M6566 8098 c3 -5 10 -6 15 -3 13 9 11 12 -6 12 -8 0 -12 -4 -9 -9z"/>
<path d="M6610 8099 c0 -5 5 -7 10 -4 6 3 10 8 10 11 0 2 -4 4 -10 4 -5 0 -10
-5 -10 -11z"/>
<path d="M6735 8099 c-3 -4 2 -6 10 -5 21 3 28 13 10 13 -9 0 -18 -4 -20 -8z"/>
<path d="M6496 8078 c3 -5 10 -6 15 -3 13 9 11 12 -6 12 -8 0 -12 -4 -9 -9z"/>
<path d="M2095 8060 c3 -5 8 -10 11 -10 2 0 4 5 4 10 0 6 -5 10 -11 10 -5 0
-7 -4 -4 -10z"/>
<path d="M2073 8035 c0 -8 4 -12 9 -9 5 3 6 10 3 15 -9 13 -12 11 -12 -6z"/>
<path d="M6716 8033 c-6 -14 -5 -15 5 -6 7 7 10 15 7 18 -3 3 -9 -2 -12 -12z"/>
<path d="M6760 8040 c-9 -6 -10 -10 -3 -10 6 0 15 5 18 10 8 12 4 12 -15 0z"/>
<path d="M1934 8016 c1 -8 5 -18 8 -22 4 -3 5 1 4 10 -1 8 -5 18 -8 22 -4 3
-5 -1 -4 -10z"/>
<path d="M1970 8019 c0 -5 5 -7 10 -4 6 3 10 8 10 11 0 2 -4 4 -10 4 -5 0 -10
-5 -10 -11z"/>
<path d="M2194 8005 c0 -13 3 -22 7 -19 8 4 6 30 -2 38 -3 3 -5 -5 -5 -19z"/>
<path d="M2266 8018 c3 -4 9 -8 15 -8 5 0 9 4 9 8 0 5 -7 9 -15 9 -8 0 -12 -4
-9 -9z"/>
<path d="M1975 7980 c3 -5 8 -10 11 -10 2 0 4 5 4 10 0 6 -5 10 -11 10 -5 0
-7 -4 -4 -10z"/>
<path d="M6753 7975 c0 -8 4 -12 9 -9 5 3 6 10 3 15 -9 13 -12 11 -12 -6z"/>
<path d="M6855 7980 c3 -5 8 -10 11 -10 2 0 4 5 4 10 0 6 -5 10 -11 10 -5 0
-7 -4 -4 -10z"/>
<path d="M6850 7939 c0 -5 5 -7 10 -4 6 3 10 8 10 11 0 2 -4 4 -10 4 -5 0 -10
-5 -10 -11z"/>
<path d="M6890 7939 c0 -5 5 -7 10 -4 6 3 10 8 10 11 0 2 -4 4 -10 4 -5 0 -10
-5 -10 -11z"/>
<path d="M1915 7931 c-3 -5 -2 -12 3 -15 5 -3 9 1 9 9 0 17 -3 19 -12 6z"/>
<path d="M1830 7926 c0 -2 7 -7 16 -10 8 -3 12 -2 9 4 -6 10 -25 14 -25 6z"/>
<path d="M6990 7926 c0 -2 7 -7 16 -10 8 -3 12 -2 9 4 -6 10 -25 14 -25 6z"/>
<path d="M1770 7900 c0 -5 5 -10 11 -10 5 0 7 5 4 10 -3 6 -8 10 -11 10 -2 0
-4 -4 -4 -10z"/>
<path d="M1949 7883 c-13 -16 -12 -17 4 -4 9 7 17 15 17 17 0 8 -8 3 -21 -13z"/>
<path d="M6856 7873 c-6 -14 -5 -15 5 -6 7 7 10 15 7 18 -3 3 -9 -2 -12 -12z"/>
<path d="M6956 7873 c-6 -14 -5 -15 5 -6 7 7 10 15 7 18 -3 3 -9 -2 -12 -12z"/>
<path d="M1995 7851 c-3 -5 -2 -12 3 -15 5 -3 9 1 9 9 0 17 -3 19 -12 6z"/>
<path d="M1970 7841 c0 -6 4 -13 10 -16 6 -3 7 1 4 9 -7 18 -14 21 -14 7z"/>
<path d="M6906 7842 c-3 -5 1 -9 9 -9 8 0 12 4 9 9 -3 4 -7 8 -9 8 -2 0 -6 -4
-9 -8z"/>
<path d="M6946 7838 c3 -5 10 -6 15 -3 13 9 11 12 -6 12 -8 0 -12 -4 -9 -9z"/>
<path d="M6986 7842 c-3 -5 1 -9 9 -9 8 0 12 4 9 9 -3 4 -7 8 -9 8 -2 0 -6 -4
-9 -8z"/>
<path d="M1695 7821 c-3 -5 -2 -12 3 -15 5 -3 9 1 9 9 0 17 -3 19 -12 6z"/>
<path d="M6990 7816 c0 -2 8 -10 18 -17 15 -13 16 -12 3 4 -13 16 -21 21 -21
13z"/>
<path d="M1655 7780 c3 -5 8 -10 11 -10 2 0 4 5 4 10 0 6 -5 10 -11 10 -5 0
-7 -4 -4 -10z"/>
<path d="M1690 7780 c0 -5 5 -10 11 -10 5 0 7 5 4 10 -3 6 -8 10 -11 10 -2 0
-4 -4 -4 -10z"/>
<path d="M6976 7778 c3 -5 10 -6 15 -3 13 9 11 12 -6 12 -8 0 -12 -4 -9 -9z"/>
<path d="M7133 7775 c0 -8 4 -12 9 -9 5 3 6 10 3 15 -9 13 -12 11 -12 -6z"/>
<path d="M7166 7778 c3 -5 10 -6 15 -3 13 9 11 12 -6 12 -8 0 -12 -4 -9 -9z"/>
<path d="M7100 7766 c0 -2 8 -10 18 -17 15 -13 16 -12 3 4 -13 16 -21 21 -21
13z"/>
<path d="M1595 7750 c-4 -6 -11 -7 -17 -4 -7 4 -8 2 -4 -5 6 -9 11 -9 22 0 14
11 18 19 10 19 -3 0 -8 -5 -11 -10z"/>
<path d="M7215 7740 c-3 -5 -1 -10 4 -10 6 0 11 5 11 10 0 6 -2 10 -4 10 -3 0
-8 -4 -11 -10z"/>
<path d="M1766 7722 c-3 -5 1 -9 9 -9 8 0 12 4 9 9 -3 4 -7 8 -9 8 -2 0 -6 -4
-9 -8z"/>
<path d="M1570 7699 c0 -5 5 -7 10 -4 6 3 10 8 10 11 0 2 -4 4 -10 4 -5 0 -10
-5 -10 -11z"/>
<path d="M1720 7700 c-9 -6 -10 -10 -3 -10 6 0 15 5 18 10 8 12 4 12 -15 0z"/>
<path d="M1671 7687 c-8 -10 -7 -14 2 -14 8 0 14 6 14 14 0 7 -1 13 -2 13 -2
0 -8 -6 -14 -13z"/>
<path d="M1475 7641 c-3 -5 -2 -12 3 -15 5 -3 9 1 9 9 0 17 -3 19 -12 6z"/>
<path d="M7200 7640 c-9 -6 -10 -10 -3 -10 6 0 15 5 18 10 8 12 4 12 -15 0z"/>
<path d="M1636 7607 c3 -10 9 -15 12 -12 3 3 0 11 -7 18 -10 9 -11 8 -5 -6z"/>
<path d="M1500 7606 c0 -2 8 -10 18 -17 15 -13 16 -12 3 4 -13 16 -21 21 -21
13z"/>
<path d="M1410 7580 c0 -5 5 -10 11 -10 5 0 7 5 4 10 -3 6 -8 10 -11 10 -2 0
-4 -4 -4 -10z"/>
<path d="M1596 7578 c3 -5 10 -6 15 -3 13 9 11 12 -6 12 -8 0 -12 -4 -9 -9z"/>
<path d="M7366 7578 c3 -5 10 -6 15 -3 13 9 11 12 -6 12 -8 0 -12 -4 -9 -9z"/>
<path d="M1633 7565 c0 -8 4 -12 9 -9 5 3 6 10 3 15 -9 13 -12 11 -12 -6z"/>
<path d="M1505 7559 c-3 -4 2 -6 10 -5 21 3 28 13 10 13 -9 0 -18 -4 -20 -8z"/>
<path d="M7453 7545 c0 -8 4 -12 9 -9 5 3 6 10 3 15 -9 13 -12 11 -12 -6z"/>
<path d="M1415 7540 c-3 -5 -1 -10 4 -10 6 0 11 5 11 10 0 6 -2 10 -4 10 -3 0
-8 -4 -11 -10z"/>
<path d="M7410 7539 c0 -5 5 -7 10 -4 6 3 10 8 10 11 0 2 -4 4 -10 4 -5 0 -10
-5 -10 -11z"/>
<path d="M1335 7500 c-3 -5 -1 -10 4 -10 6 0 11 5 11 10 0 6 -2 10 -4 10 -3 0
-8 -4 -11 -10z"/>
<path d="M1469 7483 c-13 -16 -12 -17 4 -4 9 7 17 15 17 17 0 8 -8 3 -21 -13z"/>
<path d="M1516 7481 c-3 -5 2 -15 12 -22 15 -12 16 -12 5 2 -7 9 -10 19 -6 22
3 4 4 7 0 7 -3 0 -8 -4 -11 -9z"/>
<path d="M7486 7478 c3 -5 10 -6 15 -3 13 9 11 12 -6 12 -8 0 -12 -4 -9 -9z"/>
<path d="M1290 7459 c0 -5 5 -7 10 -4 6 3 10 8 10 11 0 2 -4 4 -10 4 -5 0 -10
-5 -10 -11z"/>
<path d="M7469 7443 c-13 -16 -12 -17 4 -4 9 7 17 15 17 17 0 8 -8 3 -21 -13z"/>
<path d="M1255 7420 c-3 -5 -1 -10 4 -10 6 0 11 5 11 10 0 6 -2 10 -4 10 -3 0
-8 -4 -11 -10z"/>
<path d="M1385 7420 c-3 -6 1 -7 9 -4 18 7 21 14 7 14 -6 0 -13 -4 -16 -10z"/>
<path d="M7555 7420 c-3 -5 -1 -10 4 -10 6 0 11 5 11 10 0 6 -2 10 -4 10 -3 0
-8 -4 -11 -10z"/>
<path d="M7510 7416 c0 -2 8 -10 18 -17 15 -13 16 -12 3 4 -13 16 -21 21 -21
13z"/>
<path d="M1394 7398 c-4 -7 -4 -10 1 -6 4 4 15 2 24 -5 14 -11 14 -10 2 6 -16
20 -18 21 -27 5z"/>
<path d="M7455 7380 c3 -5 8 -10 11 -10 2 0 4 5 4 10 0 6 -5 10 -11 10 -5 0
-7 -4 -4 -10z"/>
<path d="M1390 7363 c0 -6 8 -17 18 -24 16 -13 16 -13 2 6 -8 11 -16 22 -17
24 -2 2 -3 0 -3 -6z"/>
<path d="M1305 7340 c-3 -6 1 -7 9 -4 18 7 21 14 7 14 -6 0 -13 -4 -16 -10z"/>
<path d="M1354 7336 c1 -8 5 -18 8 -22 4 -3 5 1 4 10 -1 8 -5 18 -8 22 -4 3
-5 -1 -4 -10z"/>
<path d="M1314 7318 c-4 -7 -4 -10 1 -6 4 4 15 2 24 -5 14 -11 14 -10 2 6 -16
20 -18 21 -27 5z"/>
<path d="M7586 7322 c-3 -5 1 -9 9 -9 8 0 12 4 9 9 -3 4 -7 8 -9 8 -2 0 -6 -4
-9 -8z"/>
<path d="M1337 7279 c7 -7 15 -10 18 -7 3 3 -2 9 -12 12 -14 6 -15 5 -6 -5z"/>
<path d="M1096 7258 c3 -5 10 -6 15 -3 13 9 11 12 -6 12 -8 0 -12 -4 -9 -9z"/>
<path d="M7586 7262 c-3 -5 1 -9 9 -9 8 0 12 4 9 9 -3 4 -7 8 -9 8 -2 0 -6 -4
-9 -8z"/>
<path d="M1253 7245 c0 -8 4 -15 9 -15 4 0 8 4 8 9 0 6 -4 12 -8 15 -5 3 -9
-1 -9 -9z"/>
<path d="M1050 7219 c0 -5 5 -7 10 -4 6 3 10 8 10 11 0 2 -4 4 -10 4 -5 0 -10
-5 -10 -11z"/>
<path d="M1095 7220 c3 -5 8 -10 11 -10 2 0 4 5 4 10 0 6 -5 10 -11 10 -5 0
-7 -4 -4 -10z"/>
<path d="M1016 7182 c-2 -4 -1 -14 4 -22 7 -11 9 -9 7 8 -1 24 -3 26 -11 14z"/>
<path d="M1153 7127 c0 -8 6 -14 14 -14 9 0 10 4 2 14 -6 7 -12 13 -14 13 -1
0 -2 -6 -2 -13z"/>
<path d="M1150 7096 c0 -2 8 -10 18 -17 15 -13 16 -12 3 4 -13 16 -21 21 -21
13z"/>
<path d="M910 7038 c0 -4 4 -8 9 -8 6 0 12 4 15 8 3 5 -1 9 -9 9 -8 0 -15 -4
-15 -9z"/>
<path d="M1066 7038 c3 -5 10 -6 15 -3 13 9 11 12 -6 12 -8 0 -12 -4 -9 -9z"/>
<path d="M7793 7035 c0 -8 4 -12 9 -9 5 3 6 10 3 15 -9 13 -12 11 -12 -6z"/>
<path d="M7829 7003 c-13 -16 -12 -17 4 -4 9 7 17 15 17 17 0 8 -8 3 -21 -13z"/>
<path d="M953 6955 c0 -8 4 -12 9 -9 5 3 6 10 3 15 -9 13 -12 11 -12 -6z"/>
<path d="M850 6940 c0 -5 5 -10 11 -10 5 0 7 5 4 10 -3 6 -8 10 -11 10 -2 0
-4 -4 -4 -10z"/>
<path d="M7930 6940 c0 -5 5 -10 11 -10 5 0 7 5 4 10 -3 6 -8 10 -11 10 -2 0
-4 -4 -4 -10z"/>
<path d="M955 6919 c-3 -4 2 -6 10 -5 21 3 28 13 10 13 -9 0 -18 -4 -20 -8z"/>
<path d="M810 6900 c0 -5 5 -10 11 -10 5 0 7 5 4 10 -3 6 -8 10 -11 10 -2 0
-4 -4 -4 -10z"/>
<path d="M975 6889 c-4 -6 -5 -12 -2 -15 2 -3 7 2 10 11 7 17 1 20 -8 4z"/>
<path d="M915 6879 c-3 -4 2 -6 10 -5 21 3 28 13 10 13 -9 0 -18 -4 -20 -8z"/>
<path d="M7926 6882 c-3 -5 1 -9 9 -9 8 0 12 4 9 9 -3 4 -7 8 -9 8 -2 0 -6 -4
-9 -8z"/>
<path d="M829 6843 c-13 -16 -12 -17 4 -4 16 13 21 21 13 21 -2 0 -10 -8 -17
-17z"/>
<path d="M790 6839 c0 -5 5 -7 10 -4 6 3 10 8 10 11 0 2 -4 4 -10 4 -5 0 -10
-5 -10 -11z"/>
<path d="M730 6779 c0 -5 5 -7 10 -4 6 3 10 8 10 11 0 2 -4 4 -10 4 -5 0 -10
-5 -10 -11z"/>
<path d="M875 6770 c-4 -6 -12 -7 -18 -4 -7 4 -8 3 -4 -1 13 -15 34 -14 34 1
0 17 -4 18 -12 4z"/>
<path d="M730 6739 c0 -5 5 -7 10 -4 6 3 10 8 10 11 0 2 -4 4 -10 4 -5 0 -10
-5 -10 -11z"/>
<path d="M854 6720 c0 -13 4 -16 10 -10 7 7 7 13 0 20 -6 6 -10 3 -10 -10z"/>
<path d="M795 6711 c-3 -5 -2 -12 3 -15 5 -3 9 1 9 9 0 17 -3 19 -12 6z"/>
<path d="M755 6671 c-3 -5 -2 -12 3 -15 5 -3 9 1 9 9 0 17 -3 19 -12 6z"/>
<path d="M833 6665 c0 -8 4 -12 9 -9 5 3 6 10 3 15 -9 13 -12 11 -12 -6z"/>
<path d="M675 6640 c3 -5 8 -10 11 -10 2 0 4 5 4 10 0 6 -5 10 -11 10 -5 0 -7
-4 -4 -10z"/>
<path d="M710 6640 c0 -5 5 -10 11 -10 5 0 7 5 4 10 -3 6 -8 10 -11 10 -2 0
-4 -4 -4 -10z"/>
<path d="M8147 6639 c7 -7 15 -10 18 -7 3 3 -2 9 -12 12 -14 6 -15 5 -6 -5z"/>
<path d="M705 6600 c-3 -6 1 -7 9 -4 18 7 21 14 7 14 -6 0 -13 -4 -16 -10z"/>
<path d="M610 6580 c0 -5 5 -10 11 -10 5 0 7 5 4 10 -3 6 -8 10 -11 10 -2 0
-4 -4 -4 -10z"/>
<path d="M756 6553 c-6 -14 -5 -15 5 -6 7 7 10 15 7 18 -3 3 -9 -2 -12 -12z"/>
<path d="M710 6546 c0 -2 7 -7 16 -10 8 -3 12 -2 9 4 -6 10 -25 14 -25 6z"/>
<path d="M713 6515 c0 -8 4 -12 9 -9 5 3 6 10 3 15 -9 13 -12 11 -12 -6z"/>
<path d="M626 6478 c3 -4 9 -8 15 -8 5 0 9 4 9 8 0 5 -7 9 -15 9 -8 0 -12 -4
-9 -9z"/>
<path d="M646 6438 c3 -5 10 -6 15 -3 13 9 11 12 -6 12 -8 0 -12 -4 -9 -9z"/>
<path d="M657 6413 c-10 -9 -9 -23 1 -23 5 0 9 7 9 15 0 17 -1 18 -10 8z"/>
<path d="M8279 6353 c-12 -16 -12 -17 2 -6 9 7 20 9 24 5 5 -4 5 -1 1 6 -9 16
-11 15 -27 -5z"/>
<path d="M575 6321 c-3 -5 -2 -12 3 -15 5 -3 9 1 9 9 0 17 -3 19 -12 6z"/>
<path d="M556 6278 c3 -5 10 -6 15 -3 13 9 11 12 -6 12 -8 0 -12 -4 -9 -9z"/>
<path d="M557 6250 c15 -16 50 -23 57 -12 3 5 -5 8 -17 7 -12 -1 -29 3 -37 8
-12 9 -13 9 -3 -3z"/>
<path d="M410 6220 c0 -5 5 -10 11 -10 5 0 7 5 4 10 -3 6 -8 10 -11 10 -2 0
-4 -4 -4 -10z"/>
<path d="M520 6125 c0 -2 6 -8 13 -14 10 -8 14 -7 14 2 0 8 -6 14 -14 14 -7 0
-13 -1 -13 -2z"/>
<path d="M507 6099 c7 -7 15 -10 18 -7 3 3 -2 9 -12 12 -14 6 -15 5 -6 -5z"/>
<path d="M450 6081 c0 -6 4 -13 10 -16 6 -3 7 1 4 9 -7 18 -14 21 -14 7z"/>
<path d="M496 6042 c-3 -5 1 -9 9 -9 8 0 12 4 9 9 -3 4 -7 8 -9 8 -2 0 -6 -4
-9 -8z"/>
<path d="M406 5959 c4 -8 30 -6 38 2 3 3 -5 5 -19 5 -13 0 -22 -3 -19 -7z"/>
<path d="M455 5929 c-4 -6 -5 -12 -2 -15 2 -3 7 2 10 11 7 17 1 20 -8 4z"/>
<path d="M410 5921 c0 -6 4 -13 10 -16 6 -3 7 1 4 9 -7 18 -14 21 -14 7z"/>
<path d="M356 5887 c3 -10 9 -15 12 -12 3 3 0 11 -7 18 -10 9 -11 8 -5 -6z"/>
<path d="M390 5880 c0 -5 5 -10 11 -10 5 0 7 5 4 10 -3 6 -8 10 -11 10 -2 0
-4 -4 -4 -10z"/>
<path d="M349 5837 c6 -8 7 -18 3 -22 -4 -5 -1 -5 6 -1 10 6 10 11 1 22 -6 8
-14 14 -16 14 -3 0 0 -6 6 -13z"/>
<path d="M385 5820 c-3 -6 1 -7 9 -4 18 7 21 14 7 14 -6 0 -13 -4 -16 -10z"/>
<path d="M396 5802 c-3 -5 1 -9 9 -9 8 0 12 4 9 9 -3 4 -7 8 -9 8 -2 0 -6 -4
-9 -8z"/>
<path d="M333 5767 c0 -8 6 -14 14 -14 9 0 10 4 2 14 -6 7 -12 13 -14 13 -1 0
-2 -6 -2 -13z"/>
<path d="M389 5743 c-13 -16 -12 -17 4 -4 16 13 21 21 13 21 -2 0 -10 -8 -17
-17z"/>
<path d="M309 5717 c6 -8 7 -18 3 -22 -4 -5 -1 -5 6 -1 10 6 10 11 1 22 -6 8
-14 14 -16 14 -3 0 0 -6 6 -13z"/>
<path d="M275 5660 c3 -5 8 -10 11 -10 2 0 4 5 4 10 0 6 -5 10 -11 10 -5 0 -7
-4 -4 -10z"/>
<path d="M240 5605 c0 -2 6 -8 13 -14 10 -8 14 -7 14 2 0 8 -6 14 -14 14 -7 0
-13 -1 -13 -2z"/>
<path d="M250 5560 c0 -5 5 -10 11 -10 5 0 7 5 4 10 -3 6 -8 10 -11 10 -2 0
-4 -4 -4 -10z"/>
<path d="M8587 5539 c7 -7 15 -10 18 -7 3 3 -2 9 -12 12 -14 6 -15 5 -6 -5z"/>
<path d="M236 5522 c-3 -5 1 -9 9 -9 8 0 12 4 9 9 -3 4 -7 8 -9 8 -2 0 -6 -4
-9 -8z"/>
<path d="M273 5495 c0 -8 4 -12 9 -9 5 3 6 10 3 15 -9 13 -12 11 -12 -6z"/>
<path d="M8634 5466 c1 -8 5 -18 8 -22 4 -3 5 1 4 10 -1 8 -5 18 -8 22 -4 3
-5 -1 -4 -10z"/>
<path d="M256 5398 c3 -4 11 -5 19 -1 21 7 19 12 -4 10 -11 0 -18 -5 -15 -9z"/>
<path d="M250 5376 c0 -2 8 -10 18 -17 15 -13 16 -12 3 4 -13 16 -21 21 -21
13z"/>
<path d="M135 5340 c3 -5 8 -10 11 -10 2 0 4 5 4 10 0 6 -5 10 -11 10 -5 0 -7
-4 -4 -10z"/>
<path d="M216 5322 c-3 -5 1 -9 9 -9 8 0 12 4 9 9 -3 4 -7 8 -9 8 -2 0 -6 -4
-9 -8z"/>
<path d="M230 5278 c0 -4 4 -8 9 -8 6 0 12 4 15 8 3 5 -1 9 -9 9 -8 0 -15 -4
-15 -9z"/>
<path d="M97 5255 c-4 -8 -3 -16 1 -19 4 -3 9 4 9 15 2 23 -3 25 -10 4z"/>
<path d="M8690 5265 c0 -5 5 -17 10 -25 5 -8 10 -10 10 -5 0 6 -5 17 -10 25
-5 8 -10 11 -10 5z"/>
<path d="M213 5235 c0 -8 4 -12 9 -9 4 3 8 9 8 15 0 5 -4 9 -8 9 -5 0 -9 -7
-9 -15z"/>
<path d="M155 5231 c-3 -5 -2 -12 3 -15 5 -3 9 1 9 9 0 17 -3 19 -12 6z"/>
<path d="M8696 5207 c3 -10 9 -15 12 -12 3 3 0 11 -7 18 -10 9 -11 8 -5 -6z"/>
<path d="M199 5193 c-12 -16 -12 -17 2 -6 9 7 20 9 24 5 5 -4 5 -1 1 6 -9 16
-11 15 -27 -5z"/>
<path d="M153 5187 c0 -8 6 -14 14 -14 9 0 10 4 2 14 -6 7 -12 13 -14 13 -1 0
-2 -6 -2 -13z"/>
<path d="M8693 5085 c0 -8 4 -15 9 -15 4 0 8 4 8 9 0 6 -4 12 -8 15 -5 3 -9
-1 -9 -9z"/>
<path d="M8720 4980 c-9 -6 -10 -10 -3 -10 6 0 15 5 18 10 8 12 4 12 -15 0z"/>
<path d="M174 4966 c1 -8 5 -18 8 -22 4 -3 5 1 4 10 -1 8 -5 18 -8 22 -4 3 -5
-1 -4 -10z"/>
<path d="M8715 4951 c-3 -5 -2 -12 3 -15 5 -3 9 1 9 9 0 17 -3 19 -12 6z"/>
<path d="M115 4903 c3 -3 0 -11 -5 -18 -7 -8 -5 -12 4 -12 14 0 16 22 3 32 -4
3 -5 2 -2 -2z"/>
<path d="M147 4899 c7 -7 15 -10 18 -7 3 3 -2 9 -12 12 -14 6 -15 5 -6 -5z"/>
<path d="M66 4878 c3 -5 10 -6 15 -3 13 9 11 12 -6 12 -8 0 -12 -4 -9 -9z"/>
<path d="M30 4856 c0 -2 8 -10 18 -17 15 -13 16 -12 3 4 -13 16 -21 21 -21 13z"/>
<path d="M139 4753 c-12 -16 -12 -17 2 -6 9 7 20 9 24 5 5 -4 5 -1 1 6 -9 16
-11 15 -27 -5z"/>
<path d="M66 4678 c3 -5 10 -6 15 -3 13 9 11 12 -6 12 -8 0 -12 -4 -9 -9z"/>
<path d="M106 4682 c-3 -5 1 -9 9 -9 8 0 12 4 9 9 -3 4 -7 8 -9 8 -2 0 -6 -4
-9 -8z"/>
<path d="M96 4647 c3 -10 9 -15 12 -12 3 3 0 11 -7 18 -10 9 -11 8 -5 -6z"/>
<path d="M8750 4625 c0 -7 30 -13 34 -7 3 4 -4 9 -15 9 -10 1 -19 0 -19 -2z"/>
<path d="M120 4606 c0 -2 8 -10 18 -17 15 -13 16 -12 3 4 -13 16 -21 21 -21
13z"/>
<path d="M39 4578 c-5 -18 -6 -38 -1 -34 7 8 12 36 6 36 -2 0 -4 -1 -5 -2z"/>
<path d="M113 4556 c-3 -6 -3 -8 2 -4 4 4 13 3 20 -2 8 -7 12 -5 12 3 0 16
-25 18 -34 3z"/>
<path d="M110 4520 c0 -5 5 -10 11 -10 5 0 7 5 4 10 -3 6 -8 10 -11 10 -2 0
-4 -4 -4 -10z"/>
<path d="M135 4489 c-4 -6 -5 -12 -2 -15 2 -3 7 2 10 11 7 17 1 20 -8 4z"/>
<path d="M93 4473 c0 -9 4 -10 14 -2 7 6 13 12 13 14 0 1 -6 2 -13 2 -8 0 -14
-6 -14 -14z"/>
<path d="M73 4415 c0 -8 4 -12 9 -9 5 3 6 10 3 15 -9 13 -12 11 -12 -6z"/>
<path d="M119 4398 c-5 -18 -6 -38 -1 -34 7 8 12 36 6 36 -2 0 -4 -1 -5 -2z"/>
<path d="M79 4368 c-5 -18 -6 -38 -1 -34 7 8 12 36 6 36 -2 0 -4 -1 -5 -2z"/>
<path d="M74 4296 c1 -8 5 -18 8 -22 4 -3 5 1 4 10 -1 8 -5 18 -8 22 -4 3 -5
-1 -4 -10z"/>
<path d="M105 4199 c-3 -4 2 -6 10 -5 21 3 28 13 10 13 -9 0 -18 -4 -20 -8z"/>
<path d="M110 4116 c0 -2 8 -10 18 -17 15 -13 16 -12 3 4 -13 16 -21 21 -21
13z"/>
<path d="M8767 4079 c7 -7 15 -10 18 -7 3 3 -2 9 -12 12 -14 6 -15 5 -6 -5z"/>
<path d="M97 3893 c-10 -9 -9 -23 1 -23 5 0 9 7 9 15 0 17 -1 18 -10 8z"/>
<path d="M76 3847 c3 -10 9 -15 12 -12 3 3 0 11 -7 18 -10 9 -11 8 -5 -6z"/>
<path d="M86 3798 c3 -5 10 -6 15 -3 13 9 11 12 -6 12 -8 0 -12 -4 -9 -9z"/>
<path d="M56 3782 c-3 -5 1 -9 9 -9 8 0 12 4 9 9 -3 4 -7 8 -9 8 -2 0 -6 -4
-9 -8z"/>
<path d="M155 3731 c-3 -5 -2 -12 3 -15 5 -3 9 1 9 9 0 17 -3 19 -12 6z"/>
<path d="M70 3720 c0 -5 5 -10 11 -10 5 0 7 5 4 10 -3 6 -8 10 -11 10 -2 0 -4
-4 -4 -10z"/>
<path d="M114 3688 l-19 -23 23 19 c21 18 27 26 19 26 -2 0 -12 -10 -23 -22z"/>
<path d="M156 3687 c3 -10 9 -15 12 -12 3 3 0 11 -7 18 -10 9 -11 8 -5 -6z"/>
<path d="M75 3680 c3 -5 8 -10 11 -10 2 0 4 5 4 10 0 6 -5 10 -11 10 -5 0 -7
-4 -4 -10z"/>
<path d="M180 3586 c0 -2 8 -10 18 -17 15 -13 16 -12 3 4 -13 16 -21 21 -21
13z"/>
<path d="M115 3540 c-3 -5 -1 -10 4 -10 6 0 11 5 11 10 0 6 -2 10 -4 10 -3 0
-8 -4 -11 -10z"/>
<path d="M156 3518 c3 -5 10 -6 15 -3 13 9 11 12 -6 12 -8 0 -12 -4 -9 -9z"/>
<path d="M187 3459 c7 -7 15 -10 18 -7 3 3 -2 9 -12 12 -14 6 -15 5 -6 -5z"/>
<path d="M134 3442 c4 -3 14 -7 22 -8 9 -1 13 0 10 4 -4 3 -14 7 -22 8 -9 1
-13 0 -10 -4z"/>
<path d="M193 3385 c0 -8 4 -12 9 -9 5 3 6 10 3 15 -9 13 -12 11 -12 -6z"/>
<path d="M219 3313 c-13 -16 -12 -17 4 -4 16 13 21 21 13 21 -2 0 -10 -8 -17
-17z"/>
<path d="M226 3278 c3 -4 9 -8 15 -8 5 0 9 4 9 8 0 5 -7 9 -15 9 -8 0 -12 -4
-9 -9z"/>
<path d="M236 3193 c-6 -14 -5 -15 5 -6 7 7 10 15 7 18 -3 3 -9 -2 -12 -12z"/>
<path d="M190 3186 c0 -2 7 -7 16 -10 8 -3 12 -2 9 4 -6 10 -25 14 -25 6z"/>
<path d="M270 3156 c0 -2 8 -10 18 -17 15 -13 16 -12 3 4 -13 16 -21 21 -21
13z"/>
<path d="M279 3068 c-7 -23 -4 -35 7 -35 9 0 11 4 4 12 -5 7 -7 15 -3 18 3 4
3 7 0 7 -4 0 -7 -1 -8 -2z"/>
<path d="M295 3010 c-4 -6 -11 -7 -17 -4 -7 4 -8 2 -4 -5 6 -9 11 -9 22 0 14
11 18 19 10 19 -3 0 -8 -5 -11 -10z"/>
<path d="M315 2980 c6 -30 16 -40 12 -12 -2 12 -6 24 -10 28 -3 4 -4 -4 -2
-16z"/>
<path d="M350 2941 c0 -6 4 -13 10 -16 6 -3 7 1 4 9 -7 18 -14 21 -14 7z"/>
<path d="M274 2914 c1 -8 4 -15 7 -16 2 -2 3 -1 2 1 -2 2 2 9 7 16 7 8 5 12
-4 12 -8 0 -13 -6 -12 -13z"/>
<path d="M314 2905 c1 -8 8 -21 16 -28 12 -10 12 -9 2 4 -6 9 -9 18 -6 21 3 3
1 9 -4 12 -6 3 -9 -1 -8 -9z"/>
<path d="M355 2891 c-3 -5 -2 -12 3 -15 5 -3 9 1 9 9 0 17 -3 19 -12 6z"/>
<path d="M353 2813 c0 -9 4 -10 14 -2 7 6 13 12 13 14 0 1 -6 2 -13 2 -8 0
-14 -6 -14 -14z"/>
<path d="M393 2707 c0 -8 6 -14 14 -14 9 0 10 4 2 14 -6 7 -12 13 -14 13 -1 0
-2 -6 -2 -13z"/>
<path d="M395 2641 c-3 -5 -2 -12 3 -15 5 -3 9 1 9 9 0 17 -3 19 -12 6z"/>
<path d="M429 2623 c-13 -16 -12 -17 4 -4 9 7 17 15 17 17 0 8 -8 3 -21 -13z"/>
<path d="M495 2450 c-4 -6 -12 -7 -18 -4 -7 4 -8 3 -4 -1 13 -15 34 -14 34 1
0 17 -4 18 -12 4z"/>
<path d="M560 2380 c-9 -6 -10 -10 -3 -10 6 0 15 5 18 10 8 12 4 12 -15 0z"/>
<path d="M616 2178 c3 -5 10 -6 15 -3 13 9 11 12 -6 12 -8 0 -12 -4 -9 -9z"/>
<path d="M655 2120 c3 -5 8 -10 11 -10 2 0 4 5 4 10 0 6 -5 10 -11 10 -5 0 -7
-4 -4 -10z"/>
<path d="M699 2113 c-13 -16 -12 -17 4 -4 9 7 17 15 17 17 0 8 -8 3 -21 -13z"/>
<path d="M686 2082 c-3 -5 1 -9 9 -9 8 0 12 4 9 9 -3 4 -7 8 -9 8 -2 0 -6 -4
-9 -8z"/>
<path d="M736 2042 c-3 -5 1 -9 9 -9 8 0 12 4 9 9 -3 4 -7 8 -9 8 -2 0 -6 -4
-9 -8z"/>
<path d="M800 1966 c0 -2 8 -10 18 -17 15 -13 16 -12 3 4 -13 16 -21 21 -21
13z"/>
<path d="M793 1914 c0 -9 4 -11 12 -4 7 5 14 9 16 7 2 -1 3 0 1 2 -7 11 -29 7
-29 -5z"/>
<path d="M830 1841 c0 -6 4 -13 10 -16 6 -3 7 1 4 9 -7 18 -14 21 -14 7z"/>
<path d="M910 1746 c0 -2 7 -7 16 -10 8 -3 12 -2 9 4 -6 10 -25 14 -25 6z"/>
<path d="M1056 1607 c3 -10 9 -15 12 -12 3 3 0 11 -7 18 -10 9 -11 8 -5 -6z"/>
<path d="M1153 1471 c0 -11 5 -18 9 -15 4 3 5 11 1 19 -7 21 -12 19 -10 -4z"/>
<path d="M1273 1363 c4 -3 1 -13 -6 -22 -11 -14 -10 -14 5 -2 16 12 16 31 1
31 -4 0 -3 -3 0 -7z"/>
<path d="M1313 1307 c0 -8 6 -14 14 -14 9 0 10 4 2 14 -6 7 -12 13 -14 13 -1
0 -2 -6 -2 -13z"/>
<path d="M1366 1238 c3 -5 10 -6 15 -3 13 9 11 12 -6 12 -8 0 -12 -4 -9 -9z"/>
<path d="M1480 1126 c0 -2 8 -10 18 -17 15 -13 16 -12 3 4 -13 16 -21 21 -21
13z"/>
<path d="M1560 1060 c-12 -7 -10 -9 7 -7 12 0 19 5 17 9 -6 10 -6 10 -24 -2z"/>
<path d="M1790 880 c0 -5 5 -10 11 -10 5 0 7 5 4 10 -3 6 -8 10 -11 10 -2 0
-4 -4 -4 -10z"/>
</g>
</svg>
